<svg width="10" height="20" viewBox="0 0 10 20" fill="none" xmlns="http://www.w3.org/2000/svg">
<path d="M3.0191 2.14996C3.0191 1.00871 3.94383 0.0839844 5.08507 0.0839844C6.22631 0.0839844 7.15104 1.00871 7.15104 2.14996C7.15104 3.2912 6.22631 4.21593 5.08507 4.21593C3.94383 4.21593 3.0191 3.2912 3.0191 2.14996ZM9.21701 8.34787V10.827C9.21701 12.0451 8.54764 13.0996 7.56424 13.6731V19.0909C7.56424 19.5471 7.19484 19.9173 6.73785 19.9173C6.28085 19.9173 5.91146 19.5471 5.91146 19.0909V14.1326H4.25868V19.0909C4.25868 19.5471 3.88928 19.9173 3.43229 19.9173C2.9753 19.9173 2.6059 19.5471 2.6059 19.0909V13.6731C1.6225 13.0996 0.953125 12.0451 0.953125 10.827V8.34787C0.953125 6.52486 2.43567 5.04232 4.25868 5.04232H5.91146C7.73447 5.04232 9.21701 6.52486 9.21701 8.34787Z" fill="white"/>
</svg>
