<svg width="20" height="20" viewBox="0 0 20 20" fill="none" xmlns="http://www.w3.org/2000/svg">
<path d="M10.0846 0.0839844C4.61642 0.0839844 0.167969 4.53244 0.167969 10.0007C0.666281 23.1386 19.5055 23.1353 20.0013 10.0007C20.0013 4.53244 15.5529 0.0839844 10.0846 0.0839844ZM10.911 14.1326V14.959C10.9069 16.0399 9.26238 16.0391 9.25825 14.959V14.1326H9.03677C8.15502 14.1326 7.33193 13.6582 6.88982 12.8938C6.66091 12.498 6.79643 11.9931 7.19062 11.765C7.58646 11.5344 8.09221 11.6716 8.31947 12.0658C8.46739 12.322 8.74175 12.4798 9.03595 12.4798H10.9102C11.7341 12.5335 12.1027 11.1989 11.2044 11.0254L8.69134 10.6064C5.79733 10.0701 6.42043 5.85218 9.25742 5.86871V5.04232C9.26238 3.9614 10.9061 3.96223 10.9102 5.04232V5.86871H11.1317C12.0134 5.86871 12.8365 6.34388 13.2786 7.10829C13.5075 7.5033 13.372 8.00823 12.9778 8.23714C12.5812 8.46605 12.0762 8.33052 11.849 7.93551C11.7011 7.68015 11.4267 7.52231 11.1325 7.52231H9.25825C8.43434 7.4686 8.06659 8.80321 8.96405 8.97676L11.4771 9.39573C14.3711 9.93206 13.748 14.1491 10.911 14.1326Z" fill="white"/>
</svg>
