<svg width="18" height="20" viewBox="0 0 18 20" fill="none" xmlns="http://www.w3.org/2000/svg">
<path d="M17.3481 8.3469C17.3111 9.9174 16.9204 11.4593 16.205 12.8579C15.4896 14.2565 14.468 15.4758 13.2161 16.4248V19.09C13.2161 19.3091 13.1291 19.5193 12.9741 19.6743C12.8191 19.8293 12.6089 19.9163 12.3898 19.9163C12.1706 19.9163 11.9604 19.8293 11.8054 19.6743C11.6504 19.5193 11.5634 19.3091 11.5634 19.09V1.73579C11.556 1.42528 11.6408 1.11955 11.8072 0.857276C11.9735 0.594998 12.214 0.387954 12.498 0.262334C12.8243 0.129587 13.1822 0.0947675 13.528 0.16213C13.8737 0.229492 14.1924 0.396119 14.445 0.641647C16.3617 2.74477 17.4005 5.50189 17.3481 8.3469ZM8.25781 0.0830078C8.03864 0.0830078 7.82845 0.170074 7.67347 0.325052C7.51849 0.480029 7.43142 0.690225 7.43142 0.909397V5.86773C7.42931 6.37865 7.26938 6.87644 6.97353 7.293C6.67768 7.70956 6.26036 8.02454 5.77865 8.19484V0.909397C5.77865 0.690225 5.69158 0.480029 5.5366 0.325052C5.38162 0.170074 5.17143 0.0830078 4.95226 0.0830078C4.73309 0.0830078 4.52289 0.170074 4.36791 0.325052C4.21293 0.480029 4.12587 0.690225 4.12587 0.909397V8.19484C3.64416 8.02454 3.22683 7.70956 2.93098 7.293C2.63513 6.87644 2.47521 6.37865 2.47309 5.86773V0.909397C2.47309 0.690225 2.38602 0.480029 2.23105 0.325052C2.07607 0.170074 1.86587 0.0830078 1.6467 0.0830078C1.42753 0.0830078 1.21733 0.170074 1.06236 0.325052C0.907378 0.480029 0.820313 0.690225 0.820312 0.909397V5.86773C0.821515 6.8199 1.15094 7.74254 1.75307 8.48015C2.3552 9.21776 3.19322 9.72523 4.12587 9.91704V19.09C4.12587 19.3091 4.21293 19.5193 4.36791 19.6743C4.52289 19.8293 4.73309 19.9163 4.95226 19.9163C5.17143 19.9163 5.38162 19.8293 5.5366 19.6743C5.69158 19.5193 5.77865 19.3091 5.77865 19.09V9.91704C6.7113 9.72523 7.54931 9.21776 8.15144 8.48015C8.75357 7.74254 9.083 6.8199 9.0842 5.86773V0.909397C9.0842 0.690225 8.99714 0.480029 8.84216 0.325052C8.68718 0.170074 8.47698 0.0830078 8.25781 0.0830078Z" fill="white"/>
</svg>
