<svg width="20" height="20" viewBox="0 0 20 20" fill="none" xmlns="http://www.w3.org/2000/svg">
<path d="M17.5221 0.0830078H10.911C9.54418 0.0830078 8.43186 1.19533 8.43186 2.56217V5.45371C8.61284 5.5504 8.78803 5.66113 8.95496 5.7917L11.7374 7.97006V7.52134H13.3902V9.26336L13.4571 9.31543C14.4653 10.1038 15.043 11.2905 15.043 12.5697V14.1324H16.6957V15.7852H15.043V19.9172H20.0013V2.56217C20.0013 1.19533 18.889 0.0830078 17.5221 0.0830078ZM13.3902 5.86773H11.7374V4.21495H13.3902V5.86773ZM16.6957 12.4788H15.043V10.8261H16.6957V12.4788ZM16.6957 9.17329H15.043V7.52051H16.6957V9.17329ZM16.6957 5.86773H15.043V4.21495H16.6957V5.86773ZM12.439 10.617L7.93685 7.09244C7.25591 6.55942 6.30308 6.55859 5.62214 7.09244L1.11914 10.6162C0.515052 11.0897 0.167969 11.802 0.167969 12.5689V19.9163H13.3902V12.5689C13.3902 11.8012 13.0431 11.0897 12.439 10.617ZM8.43186 15.7844H5.1263V12.4788H8.43186V15.7844Z" fill="white"/>
</svg>
