<svg width="20" height="20" viewBox="0 0 20 20" fill="none" xmlns="http://www.w3.org/2000/svg">
<path d="M7.60547 3.38954C7.60547 1.56405 10.3805 0.0839844 13.8034 0.0839844C17.2263 0.0839844 20.0013 1.56405 20.0013 3.38954C20.0013 5.21503 17.2263 6.6951 13.8034 6.6951C10.3805 6.6951 7.60547 5.21503 7.60547 3.38954ZM13.8034 8.34787C12.9547 8.34787 12.1498 8.25284 11.4143 8.08756C10.2912 7.24547 8.45086 6.6951 6.36589 6.6951C2.94298 6.6951 0.167969 8.17516 0.167969 10.0007C0.167969 11.8261 2.94298 13.3062 6.36589 13.3062C9.78879 13.3062 12.5638 11.8261 12.5638 10.0007C12.5638 9.97669 12.558 9.95355 12.5572 9.92958H12.5638V11.6534C12.5638 13.4789 9.78879 14.959 6.36589 14.959C2.94298 14.959 0.167969 13.4789 0.167969 11.6534V13.3062C0.167969 15.1317 2.94298 16.6118 6.36589 16.6118C9.78879 16.6118 12.5638 15.1317 12.5638 13.3062V14.959C12.5638 16.7845 9.78879 18.2645 6.36589 18.2645C2.94298 18.2645 0.167969 16.7845 0.167969 14.959V16.6118C0.167969 18.4373 2.94298 19.9173 6.36589 19.9173C9.78879 19.9173 12.5638 18.4373 12.5638 16.6118V16.5457C12.9646 16.5886 13.3786 16.6118 13.8034 16.6118C17.2263 16.6118 20.0013 15.1317 20.0013 13.3062V11.6534C20.0013 13.4045 17.4461 14.8342 14.2166 14.9482V13.2955C17.4461 13.1814 20.0013 11.7526 20.0013 10.0007V8.34787C20.0013 10.099 17.4461 11.5286 14.2166 11.6427V9.98991C17.4461 9.87587 20.0013 8.44704 20.0013 6.6951V5.04232C20.0013 6.86781 17.2263 8.34787 13.8034 8.34787Z" fill="white"/>
</svg>
