<svg width="20" height="20" viewBox="0 0 20 20" fill="none" xmlns="http://www.w3.org/2000/svg">
<g clip-path="url(#clip0_605_24292)">
<path d="M18.7617 8.76172H1.40755C0.722953 8.76172 0.167969 9.3167 0.167969 10.0013C0.167969 10.6859 0.722953 11.2409 1.40755 11.2409H18.7617C19.4463 11.2409 20.0013 10.6859 20.0013 10.0013C20.0013 9.3167 19.4463 8.76172 18.7617 8.76172Z" fill="white"/>
<path d="M1.40755 5.45573H18.7617C19.4463 5.45573 20.0013 4.90074 20.0013 4.21615C20.0013 3.53155 19.4463 2.97656 18.7617 2.97656H1.40755C0.722953 2.97656 0.167969 3.53155 0.167969 4.21615C0.167969 4.90074 0.722953 5.45573 1.40755 5.45573Z" fill="white"/>
<path d="M18.7617 14.5469H1.40755C0.722953 14.5469 0.167969 15.1019 0.167969 15.7865C0.167969 16.4711 0.722953 17.026 1.40755 17.026H18.7617C19.4463 17.026 20.0013 16.4711 20.0013 15.7865C20.0013 15.1019 19.4463 14.5469 18.7617 14.5469Z" fill="white"/>
</g>
<defs>
<clipPath id="clip0_605_24292">
<rect width="19.8333" height="19.8333" fill="white" transform="translate(0.167969 0.0839844)"/>
</clipPath>
</defs>
</svg>
