<svg width="20" height="20" viewBox="0 0 20 20" fill="none" xmlns="http://www.w3.org/2000/svg">
<path d="M17.4712 6.69412C17.0588 2.98115 13.9045 0.0830078 10.0825 0.0830078C6.26041 0.0830078 3.10608 2.98115 2.69372 6.69412H0.148438L1.73345 17.7884C1.90699 19.0015 2.96147 19.9163 4.18783 19.9163H15.9771C17.2026 19.9163 18.2579 19.0015 18.4315 17.7884L20.0165 6.69412H17.4712ZM10.0825 1.73579C12.9905 1.73579 15.3978 3.89597 15.8011 6.69412H4.36385C4.76713 3.89597 7.1744 1.73579 10.0825 1.73579ZM6.7769 16.6108H5.12413V9.99967H6.7769V16.6108ZM10.9088 16.6108H9.25607V9.99967H10.9088V16.6108ZM15.0408 16.6108H13.388V9.99967H15.0408V16.6108Z" fill="white"/>
</svg>
