<svg width="20" height="20" viewBox="0 0 20 20" fill="none" xmlns="http://www.w3.org/2000/svg">
<path d="M20.0013 7.52006V9.99923C20.0013 10.4376 19.8272 10.858 19.5172 11.1679C19.2073 11.4779 18.7869 11.652 18.3485 11.652H10.911V5.0409H18.3485V7.52006H20.0013ZM16.8428 1.29653C13.8075 -0.273609 6.35266 -0.267825 3.3256 1.29653C2.90861 1.47408 2.54874 1.76334 2.28569 2.13241C2.02263 2.50147 1.8666 2.93602 1.8348 3.38812H18.3345C18.3027 2.9359 18.1466 2.50125 17.8834 2.13216C17.6201 1.76307 17.26 1.47389 16.8428 1.29653ZM1.82075 13.3048H18.3485V18.2631H16.6957V19.9159H12.5638V18.2631H7.60547V19.9159H3.47352V18.2631H1.82075V13.3048ZM14.2166 16.6103C14.4358 16.6103 14.6459 16.5233 14.8009 16.3683C14.9559 16.2133 15.043 16.0031 15.043 15.784C15.043 15.5648 14.9559 15.3546 14.8009 15.1996C14.6459 15.0446 14.4358 14.9576 14.2166 14.9576C13.9974 14.9576 13.7872 15.0446 13.6322 15.1996C13.4773 15.3546 13.3902 15.5648 13.3902 15.784C13.3902 16.0031 13.4773 16.2133 13.6322 16.3683C13.7872 16.5233 13.9974 16.6103 14.2166 16.6103ZM5.95269 16.6103C6.17186 16.6103 6.38206 16.5233 6.53704 16.3683C6.69201 16.2133 6.77908 16.0031 6.77908 15.784C6.77908 15.5648 6.69201 15.3546 6.53704 15.1996C6.38206 15.0446 6.17186 14.9576 5.95269 14.9576C5.73352 14.9576 5.52332 15.0446 5.36835 15.1996C5.21337 15.3546 5.1263 15.5648 5.1263 15.784C5.1263 16.0031 5.21337 16.2133 5.36835 16.3683C5.52332 16.5233 5.73352 16.6103 5.95269 16.6103ZM9.25825 11.652V5.0409H1.82075V7.52006H0.167969V9.99923C0.167969 10.4376 0.3421 10.858 0.652056 11.1679C0.962012 11.4779 1.3824 11.652 1.82075 11.652H9.25825Z" fill="white"/>
</svg>
