<svg width="20" height="20" viewBox="0 0 20 20" fill="none" xmlns="http://www.w3.org/2000/svg">
<g clip-path="url(#clip0_605_22916)">
<path d="M10.153 4.21719H1.82438C1.82438 1.93922 3.67765 0.0859375 5.95563 0.0859375H12.9069C11.4461 0.962589 10.4066 2.46223 10.153 4.21719ZM11.7394 8.34844V17.4372C11.7394 18.8063 10.6297 19.9159 9.26062 19.9159H2.65062C1.28153 19.9159 0.171875 18.8063 0.171875 17.4372V8.34844C0.171875 6.97934 1.28153 5.86969 2.65062 5.86969H9.26062C10.6297 5.86969 11.7394 6.97934 11.7394 8.34844ZM5.12937 16.6109C5.12937 16.1548 4.75921 15.7847 4.30312 15.7847H3.47688C3.02079 15.7847 2.65062 16.1548 2.65062 16.6109C2.65062 17.067 3.02079 17.4372 3.47688 17.4372H4.30312C4.75921 17.4372 5.12937 17.067 5.12937 16.6109ZM5.12937 13.3059C5.12937 12.8498 4.75921 12.4797 4.30312 12.4797H3.47688C3.02079 12.4797 2.65062 12.8498 2.65062 13.3059C2.65062 13.762 3.02079 14.1322 3.47688 14.1322H4.30312C4.75921 14.1322 5.12937 13.762 5.12937 13.3059ZM9.26062 16.6109C9.26062 16.1548 8.89046 15.7847 8.43437 15.7847H7.60813C7.15204 15.7847 6.78188 16.1548 6.78188 16.6109C6.78188 17.067 7.15204 17.4372 7.60813 17.4372H8.43437C8.89046 17.4372 9.26062 17.067 9.26062 16.6109ZM9.26062 13.3059C9.26062 12.8498 8.89046 12.4797 8.43437 12.4797H7.60813C7.15204 12.4797 6.78188 12.8498 6.78188 13.3059C6.78188 13.762 7.15204 14.1322 7.60813 14.1322H8.43437C8.89046 14.1322 9.26062 13.762 9.26062 13.3059ZM9.26062 10.0009V9.17469C9.26062 8.7186 8.89046 8.34844 8.43437 8.34844H3.47688C3.02079 8.34844 2.65062 8.7186 2.65062 9.17469V10.0009C2.65062 10.457 3.02079 10.8272 3.47688 10.8272H8.43437C8.89046 10.8272 9.26062 10.457 9.26062 10.0009ZM15.8706 0.912188C13.5927 0.912188 11.7394 2.76547 11.7394 5.04344V5.06327C12.7383 5.81681 13.3919 7.0033 13.3919 8.34844V13.7191L13.4001 13.7215C13.4018 14.0231 13.5596 14.314 13.848 14.4586L14.6742 14.8717C14.9436 15.0055 15.2633 14.9841 15.5104 14.8147L16.9704 13.8157L18.7633 14.8485C18.8906 14.9221 19.0327 14.9593 19.1756 14.9593C19.3186 14.9593 19.4615 14.9221 19.5888 14.8485C19.8449 14.7006 20.0019 14.428 20.0019 14.133V5.04344C20.0019 2.76547 18.1486 0.912188 15.8706 0.912188Z" fill="white"/>
</g>
<defs>
<clipPath id="clip0_605_22916">
<rect width="19.83" height="19.83" fill="white" transform="translate(0.171875 0.0859375)"/>
</clipPath>
</defs>
</svg>
