<svg width="20" height="20" viewBox="0 0 20 20" fill="none" xmlns="http://www.w3.org/2000/svg">
<path d="M17.0172 2.81085C16.8126 2.25432 16.4424 1.77382 15.9565 1.43401C15.4705 1.0942 14.8922 0.91138 14.2992 0.910157H5.87006C5.2826 0.909699 4.70899 1.08849 4.22583 1.42265C3.74267 1.75682 3.37297 2.23044 3.16611 2.78028L1.38194 7.27335C0.577571 9.47981 0.166683 11.8103 0.167972 14.1588V16.6115H2.64714V19.0907H5.95269V16.6115H14.2166V19.0907H17.5221V16.6115H20.0013V14.1588C20.0017 11.7977 19.5866 9.455 18.7749 7.23782L17.0172 2.81085ZM14.2166 12.8928C14.2166 12.564 14.3472 12.2487 14.5796 12.0163C14.8121 11.7838 15.1274 11.6532 15.4562 11.6532C15.7849 11.6532 16.1002 11.7838 16.3327 12.0163C16.5652 12.2487 16.6958 12.564 16.6958 12.8928C16.6958 13.2216 16.5652 13.5368 16.3327 13.7693C16.1002 14.0018 15.7849 14.1324 15.4562 14.1324C15.1274 14.1324 14.8121 14.0018 14.5796 13.7693C14.3472 13.5368 14.2166 13.2216 14.2166 12.8928ZM3.69748 8.15346L5.48331 3.66121C5.51222 3.58177 5.5648 3.51311 5.63396 3.46449C5.70311 3.41587 5.78552 3.38964 5.87006 3.38932H14.2992C14.3897 3.39158 14.4772 3.42235 14.5492 3.47726C14.6211 3.53217 14.6739 3.6084 14.7 3.69509L16.4586 8.11957C16.585 8.46748 16.6941 8.81953 16.7941 9.17405H3.37271C3.47353 8.83027 3.576 8.48897 3.69748 8.15346ZM4.71311 14.1324C4.38435 14.1324 4.06906 14.0018 3.83659 13.7693C3.60413 13.5368 3.47353 13.2216 3.47353 12.8928C3.47353 12.564 3.60413 12.2487 3.83659 12.0163C4.06906 11.7838 4.38435 11.6532 4.71311 11.6532C5.04187 11.6532 5.35716 11.7838 5.58963 12.0163C5.8221 12.2487 5.95269 12.564 5.95269 12.8928C5.95269 13.2216 5.8221 13.5368 5.58963 13.7693C5.35716 14.0018 5.04187 14.1324 4.71311 14.1324Z" fill="white"/>
</svg>
