<svg width="357" height="312" viewBox="0 0 357 312" fill="none" xmlns="http://www.w3.org/2000/svg">
<rect x="0.816406" y="0.5" width="355" height="71" rx="11.5" fill="white"/>
<rect x="0.816406" y="0.5" width="355" height="71" rx="11.5" stroke="url(#paint0_linear_556_66046)"/>
<rect x="16.3164" y="18" width="36" height="36" rx="18" fill="#FF9F43"/>
<g clip-path="url(#clip0_556_66046)">
<path d="M40.6489 33.1667C40.2954 29.9841 37.5917 27.5 34.3157 27.5C31.0396 27.5 28.3359 29.9841 27.9824 33.1667H25.8008L27.1594 42.676C27.3081 43.7159 28.2119 44.5 29.2631 44.5H39.3682C40.4187 44.5 41.3232 43.7159 41.4719 42.676L42.8305 33.1667H40.6489ZM34.3157 28.9167C36.8083 28.9167 38.8717 30.7682 39.2173 33.1667H29.414C29.7597 30.7682 31.823 28.9167 34.3157 28.9167ZM31.4823 41.6667H30.0657V36H31.4823V41.6667ZM35.024 41.6667H33.6073V36H35.024V41.6667ZM38.5657 41.6667H37.149V36H38.5657V41.6667Z" fill="white"/>
</g>
<path d="M64.1804 26.14C63.3871 26.14 62.7057 26.0047 62.1364 25.734C61.5764 25.4633 61.0677 25.0573 60.6104 24.516L61.8704 23.256C62.1597 23.6387 62.4957 23.9373 62.8784 24.152C63.2611 24.3573 63.7277 24.46 64.2784 24.46C64.7731 24.46 65.1651 24.362 65.4544 24.166C65.7531 23.97 65.9024 23.6993 65.9024 23.354C65.9024 23.0553 65.8184 22.8127 65.6504 22.626C65.4824 22.4393 65.2584 22.2807 64.9784 22.15C64.7077 22.0193 64.4044 21.9027 64.0684 21.8C63.7417 21.688 63.4104 21.562 63.0744 21.422C62.7477 21.282 62.4444 21.1093 62.1644 20.904C61.8937 20.6893 61.6744 20.4187 61.5064 20.092C61.3384 19.756 61.2544 19.336 61.2544 18.832C61.2544 18.2347 61.3991 17.726 61.6884 17.306C61.9777 16.886 62.3744 16.564 62.8784 16.34C63.3824 16.116 63.9517 16.004 64.5864 16.004C65.2584 16.004 65.8651 16.13 66.4064 16.382C66.9477 16.634 67.3911 16.9607 67.7364 17.362L66.4764 18.622C66.1871 18.3047 65.8884 18.0713 65.5804 17.922C65.2817 17.7727 64.9411 17.698 64.5584 17.698C64.1197 17.698 63.7744 17.782 63.5224 17.95C63.2704 18.118 63.1444 18.3607 63.1444 18.678C63.1444 18.9487 63.2284 19.168 63.3964 19.336C63.5644 19.504 63.7837 19.6487 64.0544 19.77C64.3344 19.8913 64.6377 20.008 64.9644 20.12C65.3004 20.232 65.6317 20.358 65.9584 20.498C66.2944 20.638 66.5977 20.82 66.8684 21.044C67.1484 21.268 67.3724 21.5573 67.5404 21.912C67.7084 22.2573 67.7924 22.6867 67.7924 23.2C67.7924 24.1147 67.4704 24.8333 66.8264 25.356C66.1824 25.8787 65.3004 26.14 64.1804 26.14ZM73.6491 26V22.122C73.6491 21.7207 73.5231 21.394 73.2711 21.142C73.0191 20.89 72.6924 20.764 72.2911 20.764C72.0298 20.764 71.7964 20.82 71.5911 20.932C71.3858 21.044 71.2224 21.2027 71.1011 21.408C70.9891 21.6133 70.9331 21.8513 70.9331 22.122L70.2191 21.758C70.2191 21.226 70.3311 20.764 70.5551 20.372C70.7791 19.9707 71.0871 19.658 71.4791 19.434C71.8804 19.21 72.3378 19.098 72.8511 19.098C73.3644 19.098 73.8171 19.21 74.2091 19.434C74.6104 19.658 74.9231 19.966 75.1471 20.358C75.3711 20.75 75.4831 21.2027 75.4831 21.716V26H73.6491ZM69.0991 26V15.878H70.9331V26H69.0991ZM80.1384 26.14C79.4571 26.14 78.8411 25.986 78.2904 25.678C77.7491 25.3607 77.3151 24.936 76.9884 24.404C76.6711 23.8627 76.5124 23.2607 76.5124 22.598C76.5124 21.9353 76.6711 21.3427 76.9884 20.82C77.3058 20.288 77.7398 19.868 78.2904 19.56C78.8411 19.2427 79.4524 19.084 80.1244 19.084C80.8151 19.084 81.4311 19.2427 81.9724 19.56C82.5231 19.868 82.9571 20.288 83.2744 20.82C83.5918 21.3427 83.7504 21.9353 83.7504 22.598C83.7504 23.2607 83.5918 23.8627 83.2744 24.404C82.9571 24.936 82.5231 25.3607 81.9724 25.678C81.4311 25.986 80.8198 26.14 80.1384 26.14ZM80.1244 24.432C80.4698 24.432 80.7731 24.3573 81.0344 24.208C81.3051 24.0493 81.5104 23.8347 81.6504 23.564C81.7998 23.284 81.8744 22.9667 81.8744 22.612C81.8744 22.2573 81.7998 21.9447 81.6504 21.674C81.5011 21.4033 81.2958 21.1933 81.0344 21.044C80.7731 20.8853 80.4698 20.806 80.1244 20.806C79.7884 20.806 79.4898 20.8853 79.2284 21.044C78.9671 21.1933 78.7618 21.4033 78.6124 21.674C78.4631 21.9447 78.3884 22.2573 78.3884 22.612C78.3884 22.9667 78.4631 23.284 78.6124 23.564C78.7618 23.8347 78.9671 24.0493 79.2284 24.208C79.4898 24.3573 79.7884 24.432 80.1244 24.432ZM88.6831 26.14C88.1978 26.14 87.7591 26.042 87.3671 25.846C86.9751 25.6407 86.6625 25.3653 86.4291 25.02C86.1958 24.6747 86.0698 24.278 86.0511 23.83V21.436C86.0698 20.988 86.1958 20.5913 86.4291 20.246C86.6718 19.8913 86.9845 19.6113 87.3671 19.406C87.7591 19.2007 88.1978 19.098 88.6831 19.098C89.3085 19.098 89.8685 19.252 90.3631 19.56C90.8578 19.868 91.2451 20.288 91.5251 20.82C91.8145 21.352 91.9591 21.954 91.9591 22.626C91.9591 23.2887 91.8145 23.886 91.5251 24.418C91.2451 24.95 90.8578 25.37 90.3631 25.678C89.8685 25.986 89.3085 26.14 88.6831 26.14ZM84.9311 28.828V19.238H86.7651V21.016L86.4571 22.654L86.7511 24.292V28.828H84.9311ZM88.3611 24.446C88.6971 24.446 88.9958 24.3713 89.2571 24.222C89.5185 24.0633 89.7191 23.8487 89.8591 23.578C90.0085 23.298 90.0831 22.976 90.0831 22.612C90.0831 22.2573 90.0085 21.9447 89.8591 21.674C89.7191 21.394 89.5185 21.1793 89.2571 21.03C88.9958 20.8713 88.6971 20.792 88.3611 20.792C88.0345 20.792 87.7405 20.8713 87.4791 21.03C87.2178 21.1793 87.0125 21.394 86.8631 21.674C86.7231 21.9447 86.6531 22.2573 86.6531 22.612C86.6531 22.976 86.7231 23.298 86.8631 23.578C87.0125 23.8487 87.2131 24.0633 87.4651 24.222C87.7265 24.3713 88.0251 24.446 88.3611 24.446ZM96.9136 26.14C96.4283 26.14 95.9896 26.042 95.5976 25.846C95.2056 25.6407 94.8929 25.3653 94.6596 25.02C94.4263 24.6747 94.3003 24.278 94.2816 23.83V21.436C94.3003 20.988 94.4263 20.5913 94.6596 20.246C94.9023 19.8913 95.2149 19.6113 95.5976 19.406C95.9896 19.2007 96.4283 19.098 96.9136 19.098C97.5389 19.098 98.0989 19.252 98.5936 19.56C99.0883 19.868 99.4756 20.288 99.7556 20.82C100.045 21.352 100.19 21.954 100.19 22.626C100.19 23.2887 100.045 23.886 99.7556 24.418C99.4756 24.95 99.0883 25.37 98.5936 25.678C98.0989 25.986 97.5389 26.14 96.9136 26.14ZM93.1616 28.828V19.238H94.9956V21.016L94.6876 22.654L94.9816 24.292V28.828H93.1616ZM96.5916 24.446C96.9276 24.446 97.2263 24.3713 97.4876 24.222C97.7489 24.0633 97.9496 23.8487 98.0896 23.578C98.2389 23.298 98.3136 22.976 98.3136 22.612C98.3136 22.2573 98.2389 21.9447 98.0896 21.674C97.9496 21.394 97.7489 21.1793 97.4876 21.03C97.2263 20.8713 96.9276 20.792 96.5916 20.792C96.2649 20.792 95.9709 20.8713 95.7096 21.03C95.4483 21.1793 95.2429 21.394 95.0936 21.674C94.9536 21.9447 94.8836 22.2573 94.8836 22.612C94.8836 22.976 94.9536 23.298 95.0936 23.578C95.2429 23.8487 95.4436 24.0633 95.6956 24.222C95.9569 24.3713 96.2556 24.446 96.5916 24.446ZM101.392 26V19.238H103.24V26H101.392ZM102.316 18.146C102.017 18.146 101.77 18.048 101.574 17.852C101.378 17.6467 101.28 17.3947 101.28 17.096C101.28 16.8067 101.378 16.5593 101.574 16.354C101.77 16.1487 102.017 16.046 102.316 16.046C102.624 16.046 102.871 16.1487 103.058 16.354C103.254 16.5593 103.352 16.8067 103.352 17.096C103.352 17.3947 103.254 17.6467 103.058 17.852C102.871 18.048 102.624 18.146 102.316 18.146ZM109.415 26V22.122C109.415 21.7207 109.289 21.394 109.037 21.142C108.785 20.89 108.458 20.764 108.057 20.764C107.795 20.764 107.562 20.82 107.357 20.932C107.151 21.044 106.988 21.2027 106.867 21.408C106.755 21.6133 106.699 21.8513 106.699 22.122L105.985 21.758C105.985 21.226 106.097 20.764 106.321 20.372C106.554 19.9707 106.871 19.658 107.273 19.434C107.683 19.21 108.145 19.098 108.659 19.098C109.153 19.098 109.597 19.224 109.989 19.476C110.381 19.7187 110.689 20.0407 110.913 20.442C111.137 20.834 111.249 21.2587 111.249 21.716V26H109.415ZM104.865 26V19.238H106.699V26H104.865ZM115.554 28.996C114.835 28.996 114.201 28.8653 113.65 28.604C113.099 28.352 112.661 27.9927 112.334 27.526L113.496 26.364C113.757 26.672 114.047 26.9053 114.364 27.064C114.691 27.232 115.083 27.316 115.54 27.316C116.109 27.316 116.557 27.1713 116.884 26.882C117.22 26.5927 117.388 26.1913 117.388 25.678V23.984L117.696 22.5L117.402 21.016V19.238H119.222V25.65C119.222 26.322 119.063 26.9053 118.746 27.4C118.438 27.904 118.009 28.296 117.458 28.576C116.907 28.856 116.273 28.996 115.554 28.996ZM115.47 25.818C114.863 25.818 114.317 25.6733 113.832 25.384C113.347 25.0853 112.964 24.6793 112.684 24.166C112.413 23.6527 112.278 23.0787 112.278 22.444C112.278 21.8093 112.413 21.24 112.684 20.736C112.964 20.232 113.347 19.8353 113.832 19.546C114.317 19.2473 114.863 19.098 115.47 19.098C115.974 19.098 116.417 19.196 116.8 19.392C117.192 19.588 117.5 19.8587 117.724 20.204C117.948 20.54 118.069 20.9367 118.088 21.394V23.522C118.069 23.97 117.943 24.3713 117.71 24.726C117.486 25.0713 117.178 25.342 116.786 25.538C116.403 25.7247 115.965 25.818 115.47 25.818ZM115.834 24.152C116.17 24.152 116.459 24.082 116.702 23.942C116.954 23.7927 117.15 23.592 117.29 23.34C117.43 23.0787 117.5 22.7847 117.5 22.458C117.5 22.122 117.43 21.828 117.29 21.576C117.15 21.324 116.954 21.128 116.702 20.988C116.459 20.8387 116.17 20.764 115.834 20.764C115.498 20.764 115.204 20.8387 114.952 20.988C114.7 21.128 114.504 21.3287 114.364 21.59C114.224 21.842 114.154 22.1313 114.154 22.458C114.154 22.7753 114.224 23.0647 114.364 23.326C114.504 23.578 114.7 23.7787 114.952 23.928C115.204 24.0773 115.498 24.152 115.834 24.152Z" fill="#090B0E"/>
<path d="M65.0938 49.12C64.5098 49.12 63.9618 49.012 63.4498 48.796C62.9458 48.572 62.5018 48.264 62.1178 47.872C61.7418 47.48 61.4458 47.024 61.2298 46.504C61.0138 45.984 60.9058 45.424 60.9058 44.824C60.9058 44.224 61.0138 43.668 61.2298 43.156C61.4458 42.636 61.7458 42.18 62.1298 41.788C62.5138 41.396 62.9618 41.092 63.4738 40.876C63.9938 40.66 64.5578 40.552 65.1658 40.552C65.8298 40.552 66.4418 40.68 67.0018 40.936C67.5618 41.192 68.0298 41.56 68.4058 42.04L67.6258 42.82C67.3618 42.436 67.0138 42.144 66.5818 41.944C66.1498 41.736 65.6778 41.632 65.1658 41.632C64.5578 41.632 64.0178 41.768 63.5458 42.04C63.0818 42.312 62.7178 42.688 62.4538 43.168C62.1978 43.648 62.0698 44.2 62.0698 44.824C62.0698 45.456 62.2018 46.012 62.4658 46.492C62.7298 46.972 63.0858 47.348 63.5338 47.62C63.9818 47.892 64.4938 48.028 65.0698 48.028C65.6538 48.028 66.1578 47.916 66.5818 47.692C67.0138 47.468 67.3458 47.14 67.5778 46.708C67.8098 46.268 67.9258 45.732 67.9258 45.1L68.6098 45.592H65.0098V44.56H69.0898V44.728C69.0898 45.696 68.9178 46.508 68.5738 47.164C68.2378 47.812 67.7658 48.3 67.1578 48.628C66.5578 48.956 65.8698 49.12 65.0938 49.12ZM70.415 49V43.3H71.495V49H70.415ZM71.495 45.748L71.087 45.568C71.087 44.84 71.255 44.26 71.591 43.828C71.927 43.396 72.411 43.18 73.043 43.18C73.331 43.18 73.591 43.232 73.823 43.336C74.055 43.432 74.271 43.596 74.471 43.828L73.763 44.56C73.643 44.432 73.511 44.34 73.367 44.284C73.223 44.228 73.055 44.2 72.863 44.2C72.463 44.2 72.135 44.328 71.879 44.584C71.623 44.84 71.495 45.228 71.495 45.748ZM77.648 49.12C77.088 49.12 76.584 48.988 76.136 48.724C75.688 48.46 75.332 48.104 75.068 47.656C74.804 47.2 74.672 46.692 74.672 46.132C74.672 45.58 74.804 45.084 75.068 44.644C75.332 44.196 75.688 43.84 76.136 43.576C76.584 43.312 77.088 43.18 77.648 43.18C78.2 43.18 78.7 43.312 79.148 43.576C79.604 43.832 79.964 44.184 80.228 44.632C80.492 45.08 80.624 45.58 80.624 46.132C80.624 46.692 80.492 47.2 80.228 47.656C79.964 48.104 79.604 48.46 79.148 48.724C78.7 48.988 78.2 49.12 77.648 49.12ZM77.648 48.076C78.008 48.076 78.328 47.992 78.608 47.824C78.888 47.656 79.108 47.428 79.268 47.14C79.428 46.844 79.508 46.508 79.508 46.132C79.508 45.764 79.424 45.436 79.256 45.148C79.096 44.86 78.876 44.636 78.596 44.476C78.324 44.308 78.008 44.224 77.648 44.224C77.288 44.224 76.968 44.308 76.688 44.476C76.408 44.636 76.188 44.86 76.028 45.148C75.868 45.436 75.788 45.764 75.788 46.132C75.788 46.508 75.868 46.844 76.028 47.14C76.188 47.428 76.408 47.656 76.688 47.824C76.968 47.992 77.288 48.076 77.648 48.076ZM84.4448 49.12C83.8848 49.12 83.3768 48.988 82.9208 48.724C82.4728 48.46 82.1168 48.104 81.8528 47.656C81.5968 47.2 81.4688 46.696 81.4688 46.144C81.4688 45.584 81.5968 45.08 81.8528 44.632C82.1168 44.184 82.4728 43.832 82.9208 43.576C83.3768 43.312 83.8848 43.18 84.4448 43.18C84.8848 43.18 85.2928 43.264 85.6688 43.432C86.0448 43.592 86.3688 43.828 86.6408 44.14L85.9208 44.86C85.7448 44.652 85.5288 44.496 85.2728 44.392C85.0248 44.28 84.7488 44.224 84.4448 44.224C84.0848 44.224 83.7648 44.308 83.4848 44.476C83.2048 44.636 82.9848 44.86 82.8248 45.148C82.6648 45.436 82.5848 45.768 82.5848 46.144C82.5848 46.52 82.6648 46.852 82.8248 47.14C82.9848 47.428 83.2048 47.656 83.4848 47.824C83.7648 47.992 84.0848 48.076 84.4448 48.076C84.7488 48.076 85.0248 48.024 85.2728 47.92C85.5288 47.808 85.7488 47.648 85.9328 47.44L86.6408 48.16C86.3768 48.464 86.0528 48.7 85.6688 48.868C85.2928 49.036 84.8848 49.12 84.4448 49.12ZM90.2347 49.12C89.6667 49.12 89.1547 48.992 88.6987 48.736C88.2427 48.472 87.8827 48.116 87.6187 47.668C87.3547 47.22 87.2227 46.712 87.2227 46.144C87.2227 45.584 87.3507 45.08 87.6067 44.632C87.8707 44.184 88.2227 43.832 88.6627 43.576C89.1107 43.312 89.6107 43.18 90.1627 43.18C90.6907 43.18 91.1547 43.3 91.5547 43.54C91.9627 43.78 92.2787 44.112 92.5027 44.536C92.7347 44.96 92.8507 45.44 92.8507 45.976C92.8507 46.056 92.8467 46.144 92.8387 46.24C92.8307 46.328 92.8147 46.432 92.7907 46.552H87.9787V45.652H92.2147L91.8187 46C91.8187 45.616 91.7507 45.292 91.6147 45.028C91.4787 44.756 91.2867 44.548 91.0387 44.404C90.7907 44.252 90.4907 44.176 90.1387 44.176C89.7707 44.176 89.4467 44.256 89.1667 44.416C88.8867 44.576 88.6707 44.8 88.5187 45.088C88.3667 45.376 88.2907 45.716 88.2907 46.108C88.2907 46.508 88.3707 46.86 88.5307 47.164C88.6907 47.46 88.9187 47.692 89.2147 47.86C89.5107 48.02 89.8507 48.1 90.2347 48.1C90.5547 48.1 90.8467 48.044 91.1107 47.932C91.3827 47.82 91.6147 47.652 91.8067 47.428L92.5027 48.136C92.2307 48.456 91.8947 48.7 91.4947 48.868C91.1027 49.036 90.6827 49.12 90.2347 49.12ZM94.0283 49V43.3H95.1083V49H94.0283ZM95.1083 45.748L94.7003 45.568C94.7003 44.84 94.8683 44.26 95.2043 43.828C95.5403 43.396 96.0243 43.18 96.6563 43.18C96.9443 43.18 97.2043 43.232 97.4363 43.336C97.6683 43.432 97.8843 43.596 98.0843 43.828L97.3763 44.56C97.2563 44.432 97.1243 44.34 96.9803 44.284C96.8363 44.228 96.6683 44.2 96.4763 44.2C96.0763 44.2 95.7483 44.328 95.4923 44.584C95.2363 44.84 95.1083 45.228 95.1083 45.748ZM98.8567 49V43.3H99.9367V49H98.8567ZM99.3967 42.16C99.1967 42.16 99.0327 42.096 98.9047 41.968C98.7767 41.832 98.7127 41.664 98.7127 41.464C98.7127 41.272 98.7767 41.112 98.9047 40.984C99.0327 40.848 99.1967 40.78 99.3967 40.78C99.5967 40.78 99.7607 40.848 99.8887 40.984C100.017 41.112 100.081 41.272 100.081 41.464C100.081 41.664 100.017 41.832 99.8887 41.968C99.7607 42.096 99.5967 42.16 99.3967 42.16ZM104.168 49.12C103.6 49.12 103.088 48.992 102.632 48.736C102.176 48.472 101.816 48.116 101.552 47.668C101.288 47.22 101.156 46.712 101.156 46.144C101.156 45.584 101.284 45.08 101.54 44.632C101.804 44.184 102.156 43.832 102.596 43.576C103.044 43.312 103.544 43.18 104.096 43.18C104.624 43.18 105.088 43.3 105.488 43.54C105.896 43.78 106.212 44.112 106.436 44.536C106.668 44.96 106.784 45.44 106.784 45.976C106.784 46.056 106.78 46.144 106.772 46.24C106.764 46.328 106.748 46.432 106.724 46.552H101.912V45.652H106.148L105.752 46C105.752 45.616 105.684 45.292 105.548 45.028C105.412 44.756 105.22 44.548 104.972 44.404C104.724 44.252 104.424 44.176 104.072 44.176C103.704 44.176 103.38 44.256 103.1 44.416C102.82 44.576 102.604 44.8 102.452 45.088C102.3 45.376 102.224 45.716 102.224 46.108C102.224 46.508 102.304 46.86 102.464 47.164C102.624 47.46 102.852 47.692 103.148 47.86C103.444 48.02 103.784 48.1 104.168 48.1C104.488 48.1 104.78 48.044 105.044 47.932C105.316 47.82 105.548 47.652 105.74 47.428L106.436 48.136C106.164 48.456 105.828 48.7 105.428 48.868C105.036 49.036 104.616 49.12 104.168 49.12ZM109.774 49.12C109.454 49.12 109.15 49.08 108.862 49C108.582 48.912 108.322 48.792 108.082 48.64C107.842 48.48 107.634 48.292 107.458 48.076L108.154 47.38C108.362 47.636 108.602 47.828 108.874 47.956C109.146 48.076 109.45 48.136 109.786 48.136C110.122 48.136 110.382 48.08 110.566 47.968C110.75 47.848 110.842 47.684 110.842 47.476C110.842 47.268 110.766 47.108 110.614 46.996C110.47 46.876 110.282 46.78 110.05 46.708C109.818 46.628 109.57 46.552 109.306 46.48C109.05 46.4 108.806 46.3 108.574 46.18C108.342 46.06 108.15 45.896 107.998 45.688C107.854 45.48 107.782 45.204 107.782 44.86C107.782 44.516 107.866 44.22 108.034 43.972C108.202 43.716 108.434 43.52 108.73 43.384C109.034 43.248 109.398 43.18 109.822 43.18C110.27 43.18 110.666 43.26 111.01 43.42C111.362 43.572 111.65 43.804 111.874 44.116L111.178 44.812C111.018 44.604 110.818 44.444 110.578 44.332C110.346 44.22 110.082 44.164 109.786 44.164C109.474 44.164 109.234 44.22 109.066 44.332C108.906 44.436 108.826 44.584 108.826 44.776C108.826 44.968 108.898 45.116 109.042 45.22C109.186 45.324 109.374 45.412 109.606 45.484C109.846 45.556 110.094 45.632 110.35 45.712C110.606 45.784 110.85 45.884 111.082 46.012C111.314 46.14 111.502 46.312 111.646 46.528C111.798 46.744 111.874 47.028 111.874 47.38C111.874 47.916 111.682 48.34 111.298 48.652C110.922 48.964 110.414 49.12 109.774 49.12Z" fill="#3D4C5E"/>
<circle cx="118.316" cy="45" r="2" fill="#3D4C5E"/>
<path d="M126.414 49L129.534 41.332L130.65 41.368L127.602 49H126.414ZM125.106 41.68V40.672H130.65V41.368L130.158 41.68H125.106ZM135.715 49.12C135.235 49.12 134.811 49.028 134.443 48.844C134.083 48.652 133.787 48.396 133.555 48.076L134.347 47.344C134.499 47.568 134.687 47.74 134.911 47.86C135.143 47.98 135.399 48.04 135.679 48.04C135.959 48.04 136.207 47.98 136.423 47.86C136.639 47.74 136.807 47.564 136.927 47.332C137.055 47.092 137.119 46.8 137.119 46.456V40.672H138.247V46.396C138.247 46.948 138.135 47.428 137.911 47.836C137.695 48.244 137.395 48.56 137.011 48.784C136.635 49.008 136.203 49.12 135.715 49.12ZM142.221 49.12C141.757 49.12 141.337 49.016 140.961 48.808C140.593 48.592 140.305 48.296 140.097 47.92C139.889 47.544 139.785 47.108 139.785 46.612V43.3H140.865V46.564C140.865 46.876 140.917 47.148 141.021 47.38C141.133 47.604 141.293 47.776 141.501 47.896C141.709 48.016 141.953 48.076 142.233 48.076C142.657 48.076 142.989 47.944 143.229 47.68C143.469 47.408 143.589 47.036 143.589 46.564V43.3H144.669V46.612C144.669 47.108 144.565 47.544 144.357 47.92C144.149 48.296 143.861 48.592 143.493 48.808C143.133 49.016 142.709 49.12 142.221 49.12ZM150.148 49V45.676C150.148 45.244 150.012 44.888 149.74 44.608C149.468 44.328 149.116 44.188 148.684 44.188C148.396 44.188 148.14 44.252 147.916 44.38C147.692 44.508 147.516 44.684 147.388 44.908C147.26 45.132 147.196 45.388 147.196 45.676L146.752 45.424C146.752 44.992 146.848 44.608 147.04 44.272C147.232 43.936 147.5 43.672 147.844 43.48C148.188 43.28 148.576 43.18 149.008 43.18C149.44 43.18 149.82 43.288 150.148 43.504C150.484 43.72 150.748 44.004 150.94 44.356C151.132 44.7 151.228 45.068 151.228 45.46V49H150.148ZM146.116 49V43.3H147.196V49H146.116Z" fill="#3D4C5E"/>
<path d="M266.128 38.256V36.59H270.972V38.256H266.128ZM274.191 37.346V35.792H276.473C276.772 35.792 277.043 35.7313 277.285 35.61C277.528 35.4887 277.719 35.316 277.859 35.092C277.999 34.8587 278.069 34.5787 278.069 34.252C278.069 33.9347 277.999 33.6593 277.859 33.426C277.719 33.1927 277.528 33.0153 277.285 32.894C277.043 32.7727 276.772 32.712 276.473 32.712H274.191V31.158H276.669C277.295 31.158 277.855 31.284 278.349 31.536C278.853 31.788 279.25 32.1473 279.539 32.614C279.829 33.0713 279.973 33.6173 279.973 34.252C279.973 34.8867 279.829 35.4373 279.539 35.904C279.25 36.3613 278.853 36.716 278.349 36.968C277.855 37.22 277.295 37.346 276.669 37.346H274.191ZM272.791 41V31.158H274.695V41H272.791ZM287.272 41L283.002 35.862L287.16 31.158H289.54L284.906 36.268V35.386L289.694 41H287.272ZM281.322 41V31.158H283.226V41H281.322ZM292.115 36.884V35.4H294.397C294.864 35.4 295.223 35.2833 295.475 35.05C295.736 34.8073 295.867 34.476 295.867 34.056C295.867 33.6733 295.736 33.356 295.475 33.104C295.223 32.8427 294.864 32.712 294.397 32.712H292.115V31.158H294.565C295.2 31.158 295.755 31.284 296.231 31.536C296.716 31.7787 297.09 32.1147 297.351 32.544C297.622 32.9733 297.757 33.468 297.757 34.028C297.757 34.6067 297.622 35.1107 297.351 35.54C297.09 35.96 296.716 36.2913 296.231 36.534C295.746 36.7673 295.181 36.884 294.537 36.884H292.115ZM290.715 41V31.158H292.619V41H290.715ZM296.091 41L292.843 36.744L294.593 36.198L298.401 41H296.091ZM304.896 41.14C304.215 41.14 303.594 41.0233 303.034 40.79C302.474 40.5473 302.008 40.202 301.634 39.754L302.894 38.508C303.081 38.788 303.347 39.012 303.692 39.18C304.047 39.348 304.434 39.432 304.854 39.432C305.237 39.432 305.568 39.362 305.848 39.222C306.138 39.082 306.362 38.886 306.52 38.634C306.688 38.3727 306.772 38.0693 306.772 37.724C306.772 37.36 306.688 37.052 306.52 36.8C306.362 36.548 306.147 36.3567 305.876 36.226C305.606 36.0953 305.302 36.03 304.966 36.03C304.612 36.03 304.29 36.0767 304 36.17C303.72 36.254 303.45 36.394 303.188 36.59L303.3 35.386C303.478 35.1993 303.664 35.05 303.86 34.938C304.056 34.8167 304.276 34.728 304.518 34.672C304.77 34.6067 305.064 34.574 305.4 34.574C306.119 34.574 306.716 34.7233 307.192 35.022C307.678 35.3113 308.046 35.7033 308.298 36.198C308.55 36.6833 308.676 37.22 308.676 37.808C308.676 38.452 308.518 39.026 308.2 39.53C307.883 40.034 307.44 40.4307 306.87 40.72C306.31 41 305.652 41.14 304.896 41.14ZM303.188 36.59L302.278 35.694L302.726 31.158H304.448L303.944 35.764L303.188 36.59ZM303.02 32.81L302.726 31.158H308.13V32.81H303.02ZM309.632 42.666L310.626 40.818L311.2 40.664C311.135 40.7853 311.06 40.888 310.976 40.972C310.892 41.056 310.794 41.098 310.682 41.098C310.449 41.098 310.229 40.9953 310.024 40.79C309.819 40.5847 309.716 40.328 309.716 40.02C309.716 39.684 309.828 39.3993 310.052 39.166C310.276 38.9327 310.556 38.816 310.892 38.816C311.2 38.816 311.471 38.9327 311.704 39.166C311.937 39.3993 312.054 39.684 312.054 40.02C312.054 40.1507 312.026 40.3093 311.97 40.496C311.914 40.6733 311.811 40.902 311.662 41.182L310.584 43.17L309.632 42.666ZM317.105 41.14C316.33 41.14 315.63 40.93 315.005 40.51C314.38 40.09 313.88 39.4973 313.507 38.732C313.143 37.9667 312.961 37.0753 312.961 36.058C312.961 35.0407 313.143 34.154 313.507 33.398C313.871 32.642 314.361 32.054 314.977 31.634C315.602 31.214 316.298 31.004 317.063 31.004C317.847 31.004 318.547 31.214 319.163 31.634C319.788 32.054 320.283 32.6467 320.647 33.412C321.011 34.168 321.193 35.0593 321.193 36.086C321.193 37.1033 321.011 37.9947 320.647 38.76C320.283 39.516 319.793 40.104 319.177 40.524C318.561 40.9347 317.87 41.14 317.105 41.14ZM317.077 39.418C317.525 39.418 317.912 39.292 318.239 39.04C318.566 38.788 318.818 38.4147 318.995 37.92C319.182 37.4253 319.275 36.8093 319.275 36.072C319.275 35.3347 319.182 34.7187 318.995 34.224C318.818 33.7293 318.561 33.3607 318.225 33.118C317.898 32.866 317.511 32.74 317.063 32.74C316.624 32.74 316.242 32.866 315.915 33.118C315.588 33.3607 315.332 33.7293 315.145 34.224C314.968 34.7093 314.879 35.3207 314.879 36.058C314.879 36.8047 314.968 37.4253 315.145 37.92C315.332 38.4147 315.588 38.788 315.915 39.04C316.242 39.292 316.629 39.418 317.077 39.418ZM326.347 41.14C325.573 41.14 324.873 40.93 324.247 40.51C323.622 40.09 323.123 39.4973 322.749 38.732C322.385 37.9667 322.203 37.0753 322.203 36.058C322.203 35.0407 322.385 34.154 322.749 33.398C323.113 32.642 323.603 32.054 324.219 31.634C324.845 31.214 325.54 31.004 326.305 31.004C327.089 31.004 327.789 31.214 328.405 31.634C329.031 32.054 329.525 32.6467 329.889 33.412C330.253 34.168 330.435 35.0593 330.435 36.086C330.435 37.1033 330.253 37.9947 329.889 38.76C329.525 39.516 329.035 40.104 328.419 40.524C327.803 40.9347 327.113 41.14 326.347 41.14ZM326.319 39.418C326.767 39.418 327.155 39.292 327.481 39.04C327.808 38.788 328.06 38.4147 328.237 37.92C328.424 37.4253 328.517 36.8093 328.517 36.072C328.517 35.3347 328.424 34.7187 328.237 34.224C328.06 33.7293 327.803 33.3607 327.467 33.118C327.141 32.866 326.753 32.74 326.305 32.74C325.867 32.74 325.484 32.866 325.157 33.118C324.831 33.3607 324.574 33.7293 324.387 34.224C324.21 34.7093 324.121 35.3207 324.121 36.058C324.121 36.8047 324.21 37.4253 324.387 37.92C324.574 38.4147 324.831 38.788 325.157 39.04C325.484 39.292 325.871 39.418 326.319 39.418ZM335.589 41.14C334.815 41.14 334.115 40.93 333.489 40.51C332.864 40.09 332.365 39.4973 331.991 38.732C331.627 37.9667 331.445 37.0753 331.445 36.058C331.445 35.0407 331.627 34.154 331.991 33.398C332.355 32.642 332.845 32.054 333.461 31.634C334.087 31.214 334.782 31.004 335.547 31.004C336.331 31.004 337.031 31.214 337.647 31.634C338.273 32.054 338.767 32.6467 339.131 33.412C339.495 34.168 339.677 35.0593 339.677 36.086C339.677 37.1033 339.495 37.9947 339.131 38.76C338.767 39.516 338.277 40.104 337.661 40.524C337.045 40.9347 336.355 41.14 335.589 41.14ZM335.561 39.418C336.009 39.418 336.397 39.292 336.723 39.04C337.05 38.788 337.302 38.4147 337.479 37.92C337.666 37.4253 337.759 36.8093 337.759 36.072C337.759 35.3347 337.666 34.7187 337.479 34.224C337.302 33.7293 337.045 33.3607 336.709 33.118C336.383 32.866 335.995 32.74 335.547 32.74C335.109 32.74 334.726 32.866 334.399 33.118C334.073 33.3607 333.816 33.7293 333.629 34.224C333.452 34.7093 333.363 35.3207 333.363 36.058C333.363 36.8047 333.452 37.4253 333.629 37.92C333.816 38.4147 334.073 38.788 334.399 39.04C334.726 39.292 335.113 39.418 335.561 39.418Z" fill="#EF4D56"/>
<rect x="0.816406" y="80.5" width="355" height="71" rx="11.5" fill="white"/>
<rect x="0.816406" y="80.5" width="355" height="71" rx="11.5" stroke="url(#paint1_linear_556_66046)"/>
<rect x="16.3164" y="95" width="42" height="42" rx="21" fill="#00BFA5"/>
<g clip-path="url(#clip1_556_66046)">
<path d="M34.8359 109.389C34.8359 107.564 37.611 106.083 41.0339 106.083C44.4568 106.083 47.2318 107.564 47.2318 109.389C47.2318 111.215 44.4568 112.695 41.0339 112.695C37.611 112.695 34.8359 111.215 34.8359 109.389ZM41.0339 114.347C40.1852 114.347 39.3802 114.252 38.6448 114.087C37.5217 113.245 35.6813 112.695 33.5964 112.695C30.1735 112.695 27.3984 114.175 27.3984 116C27.3984 117.826 30.1735 119.306 33.5964 119.306C37.0193 119.306 39.7943 117.826 39.7943 116C39.7943 115.976 39.7885 115.953 39.7877 115.929H39.7943V117.653C39.7943 119.478 37.0193 120.958 33.5964 120.958C30.1735 120.958 27.3984 119.478 27.3984 117.653V119.306C27.3984 121.131 30.1735 122.611 33.5964 122.611C37.0193 122.611 39.7943 121.131 39.7943 119.306V120.958C39.7943 122.784 37.0193 124.264 33.5964 124.264C30.1735 124.264 27.3984 122.784 27.3984 120.958V122.611C27.3984 124.437 30.1735 125.917 33.5964 125.917C37.0193 125.917 39.7943 124.437 39.7943 122.611V122.545C40.1951 122.588 40.6091 122.611 41.0339 122.611C44.4568 122.611 47.2318 121.131 47.2318 119.306V117.653C47.2318 119.404 44.6766 120.834 41.447 120.948V119.295C44.6766 119.181 47.2318 117.752 47.2318 116V114.347C47.2318 116.099 44.6766 117.528 41.447 117.642V115.989C44.6766 115.875 47.2318 114.447 47.2318 112.695V111.042C47.2318 112.867 44.4568 114.347 41.0339 114.347Z" fill="white"/>
</g>
<path d="M68.7244 106V104.446H71.2864C71.7437 104.446 72.0984 104.306 72.3504 104.026C72.6117 103.746 72.7424 103.415 72.7424 103.032C72.7424 102.771 72.6864 102.533 72.5744 102.318C72.4624 102.103 72.2944 101.935 72.0704 101.814C71.8557 101.683 71.5944 101.618 71.2864 101.618H68.7244V100.078H71.0764C71.4684 100.078 71.7811 99.98 72.0144 99.784C72.2571 99.588 72.3784 99.294 72.3784 98.902C72.3784 98.5007 72.2571 98.202 72.0144 98.006C71.7811 97.81 71.4684 97.712 71.0764 97.712H68.7244V96.158H71.3004C71.9537 96.158 72.4997 96.2793 72.9384 96.522C73.3864 96.7553 73.7224 97.068 73.9464 97.46C74.1704 97.8427 74.2824 98.2627 74.2824 98.72C74.2824 99.28 74.1097 99.7653 73.7644 100.176C73.4284 100.577 72.9337 100.876 72.2804 101.072L72.3644 100.456C73.0924 100.661 73.6524 101.002 74.0444 101.478C74.4457 101.945 74.6464 102.509 74.6464 103.172C74.6464 103.695 74.5157 104.171 74.2544 104.6C74.0024 105.02 73.6291 105.361 73.1344 105.622C72.6491 105.874 72.0564 106 71.3564 106H68.7244ZM67.3244 106V96.158H69.2144V106H67.3244ZM79.1384 106.14C78.4571 106.14 77.8411 105.986 77.2904 105.678C76.7491 105.361 76.3151 104.936 75.9884 104.404C75.6711 103.863 75.5124 103.261 75.5124 102.598C75.5124 101.935 75.6711 101.343 75.9884 100.82C76.3058 100.288 76.7398 99.868 77.2904 99.56C77.8411 99.2427 78.4524 99.084 79.1244 99.084C79.8151 99.084 80.4311 99.2427 80.9724 99.56C81.5231 99.868 81.9571 100.288 82.2744 100.82C82.5918 101.343 82.7504 101.935 82.7504 102.598C82.7504 103.261 82.5918 103.863 82.2744 104.404C81.9571 104.936 81.5231 105.361 80.9724 105.678C80.4311 105.986 79.8198 106.14 79.1384 106.14ZM79.1244 104.432C79.4698 104.432 79.7731 104.357 80.0344 104.208C80.3051 104.049 80.5104 103.835 80.6504 103.564C80.7998 103.284 80.8744 102.967 80.8744 102.612C80.8744 102.257 80.7998 101.945 80.6504 101.674C80.5011 101.403 80.2958 101.193 80.0344 101.044C79.7731 100.885 79.4698 100.806 79.1244 100.806C78.7884 100.806 78.4898 100.885 78.2284 101.044C77.9671 101.193 77.7618 101.403 77.6124 101.674C77.4631 101.945 77.3884 102.257 77.3884 102.612C77.3884 102.967 77.4631 103.284 77.6124 103.564C77.7618 103.835 77.9671 104.049 78.2284 104.208C78.4898 104.357 78.7884 104.432 79.1244 104.432ZM88.4811 106V102.122C88.4811 101.721 88.3551 101.394 88.1031 101.142C87.8511 100.89 87.5245 100.764 87.1231 100.764C86.8618 100.764 86.6285 100.82 86.4231 100.932C86.2178 101.044 86.0545 101.203 85.9331 101.408C85.8211 101.613 85.7651 101.851 85.7651 102.122L85.0511 101.758C85.0511 101.226 85.1631 100.764 85.3871 100.372C85.6205 99.9707 85.9378 99.658 86.3391 99.434C86.7498 99.21 87.2118 99.098 87.7251 99.098C88.2198 99.098 88.6631 99.224 89.0551 99.476C89.4471 99.7187 89.7551 100.041 89.9791 100.442C90.2031 100.834 90.3151 101.259 90.3151 101.716V106H88.4811ZM83.9311 106V99.238H85.7651V106H83.9311ZM94.6765 106.14C94.0791 106.14 93.5471 106.014 93.0805 105.762C92.6231 105.51 92.2638 105.16 92.0025 104.712C91.7411 104.264 91.6105 103.746 91.6105 103.158V99.238H93.4585V103.116C93.4585 103.396 93.5051 103.639 93.5985 103.844C93.6918 104.04 93.8318 104.189 94.0185 104.292C94.2051 104.395 94.4245 104.446 94.6765 104.446C95.0591 104.446 95.3578 104.329 95.5725 104.096C95.7871 103.863 95.8945 103.536 95.8945 103.116V99.238H97.7285V103.158C97.7285 103.755 97.5978 104.278 97.3365 104.726C97.0845 105.174 96.7251 105.524 96.2585 105.776C95.8011 106.019 95.2738 106.14 94.6765 106.14ZM101.513 106.154C101.13 106.154 100.752 106.103 100.379 106C100.015 105.897 99.679 105.757 99.371 105.58C99.063 105.393 98.797 105.169 98.573 104.908L99.665 103.802C99.8983 104.063 100.169 104.259 100.477 104.39C100.785 104.521 101.126 104.586 101.499 104.586C101.798 104.586 102.022 104.544 102.171 104.46C102.33 104.376 102.409 104.25 102.409 104.082C102.409 103.895 102.325 103.751 102.157 103.648C101.998 103.545 101.788 103.461 101.527 103.396C101.266 103.321 100.99 103.242 100.701 103.158C100.421 103.065 100.15 102.948 99.889 102.808C99.6276 102.659 99.413 102.458 99.245 102.206C99.0863 101.945 99.007 101.609 99.007 101.198C99.007 100.769 99.1096 100.395 99.315 100.078C99.5296 99.7607 99.833 99.5133 100.225 99.336C100.617 99.1587 101.079 99.07 101.611 99.07C102.171 99.07 102.675 99.168 103.123 99.364C103.58 99.56 103.958 99.854 104.257 100.246L103.151 101.352C102.946 101.1 102.712 100.918 102.451 100.806C102.199 100.694 101.924 100.638 101.625 100.638C101.354 100.638 101.144 100.68 100.995 100.764C100.855 100.848 100.785 100.965 100.785 101.114C100.785 101.282 100.864 101.413 101.023 101.506C101.191 101.599 101.406 101.683 101.667 101.758C101.928 101.823 102.199 101.903 102.479 101.996C102.768 102.08 103.039 102.201 103.291 102.36C103.552 102.519 103.762 102.729 103.921 102.99C104.089 103.251 104.173 103.587 104.173 103.998C104.173 104.661 103.935 105.188 103.459 105.58C102.983 105.963 102.334 106.154 101.513 106.154Z" fill="#090B0E"/>
<path d="M70.0773 129.12C69.4213 129.12 68.8613 129 68.3973 128.76C67.9333 128.52 67.5213 128.172 67.1613 127.716L67.9293 126.948C68.1933 127.316 68.4973 127.596 68.8413 127.788C69.1853 127.972 69.6093 128.064 70.1133 128.064C70.6093 128.064 71.0053 127.956 71.3013 127.74C71.6053 127.524 71.7573 127.228 71.7573 126.852C71.7573 126.54 71.6853 126.288 71.5413 126.096C71.3973 125.904 71.2013 125.748 70.9533 125.628C70.7133 125.5 70.4493 125.388 70.1613 125.292C69.8733 125.188 69.5853 125.08 69.2973 124.968C69.0093 124.848 68.7453 124.704 68.5053 124.536C68.2653 124.36 68.0693 124.132 67.9173 123.852C67.7733 123.572 67.7013 123.22 67.7013 122.796C67.7013 122.324 67.8133 121.924 68.0373 121.596C68.2693 121.26 68.5813 121.004 68.9733 120.828C69.3733 120.644 69.8213 120.552 70.3173 120.552C70.8613 120.552 71.3493 120.66 71.7813 120.876C72.2133 121.084 72.5653 121.36 72.8373 121.704L72.0693 122.472C71.8213 122.184 71.5533 121.968 71.2653 121.824C70.9853 121.68 70.6613 121.608 70.2933 121.608C69.8453 121.608 69.4893 121.708 69.2253 121.908C68.9613 122.1 68.8293 122.372 68.8293 122.724C68.8293 123.004 68.9013 123.232 69.0453 123.408C69.1973 123.576 69.3933 123.72 69.6333 123.84C69.8733 123.96 70.1373 124.072 70.4253 124.176C70.7213 124.272 71.0133 124.38 71.3013 124.5C71.5893 124.62 71.8533 124.772 72.0933 124.956C72.3333 125.14 72.5253 125.38 72.6693 125.676C72.8213 125.964 72.8973 126.328 72.8973 126.768C72.8973 127.504 72.6413 128.08 72.1293 128.496C71.6253 128.912 70.9413 129.12 70.0773 129.12ZM76.5676 129.12C76.0476 129.12 75.5756 128.992 75.1516 128.736C74.7276 128.472 74.3916 128.116 74.1436 127.668C73.9036 127.22 73.7836 126.716 73.7836 126.156C73.7836 125.596 73.9036 125.092 74.1436 124.644C74.3916 124.196 74.7236 123.84 75.1396 123.576C75.5636 123.312 76.0396 123.18 76.5676 123.18C76.9996 123.18 77.3836 123.272 77.7196 123.456C78.0636 123.632 78.3396 123.88 78.5476 124.2C78.7556 124.512 78.8716 124.876 78.8956 125.292V127.008C78.8716 127.416 78.7556 127.78 78.5476 128.1C78.3476 128.42 78.0756 128.672 77.7316 128.856C77.3956 129.032 77.0076 129.12 76.5676 129.12ZM76.7476 128.1C77.2836 128.1 77.7156 127.92 78.0436 127.56C78.3716 127.192 78.5356 126.724 78.5356 126.156C78.5356 125.764 78.4596 125.424 78.3076 125.136C78.1636 124.84 77.9556 124.612 77.6836 124.452C77.4116 124.284 77.0956 124.2 76.7356 124.2C76.3756 124.2 76.0556 124.284 75.7756 124.452C75.5036 124.62 75.2876 124.852 75.1276 125.148C74.9756 125.436 74.8996 125.768 74.8996 126.144C74.8996 126.528 74.9756 126.868 75.1276 127.164C75.2876 127.452 75.5076 127.68 75.7876 127.848C76.0676 128.016 76.3876 128.1 76.7476 128.1ZM78.4636 129V127.464L78.6676 126.072L78.4636 124.692V123.3H79.5556V129H78.4636ZM81.1279 129V120.432H82.2079V129H81.1279ZM86.2121 129.12C85.6921 129.12 85.2201 128.992 84.7961 128.736C84.3721 128.472 84.0361 128.116 83.7881 127.668C83.5481 127.22 83.4281 126.716 83.4281 126.156C83.4281 125.596 83.5481 125.092 83.7881 124.644C84.0361 124.196 84.3681 123.84 84.7841 123.576C85.2081 123.312 85.6841 123.18 86.2121 123.18C86.6441 123.18 87.0281 123.272 87.3641 123.456C87.7081 123.632 87.9841 123.88 88.1921 124.2C88.4001 124.512 88.5161 124.876 88.5401 125.292V127.008C88.5161 127.416 88.4001 127.78 88.1921 128.1C87.9921 128.42 87.7201 128.672 87.3761 128.856C87.0401 129.032 86.6521 129.12 86.2121 129.12ZM86.3921 128.1C86.9281 128.1 87.3601 127.92 87.6881 127.56C88.0161 127.192 88.1801 126.724 88.1801 126.156C88.1801 125.764 88.1041 125.424 87.9521 125.136C87.8081 124.84 87.6001 124.612 87.3281 124.452C87.0561 124.284 86.7401 124.2 86.3801 124.2C86.0201 124.2 85.7001 124.284 85.4201 124.452C85.1481 124.62 84.9321 124.852 84.7721 125.148C84.6201 125.436 84.5441 125.768 84.5441 126.144C84.5441 126.528 84.6201 126.868 84.7721 127.164C84.9321 127.452 85.1521 127.68 85.4321 127.848C85.7121 128.016 86.0321 128.1 86.3921 128.1ZM88.1081 129V127.464L88.3121 126.072L88.1081 124.692V123.3H89.2001V129H88.1081ZM90.7725 129V123.3H91.8525V129H90.7725ZM91.8525 125.748L91.4445 125.568C91.4445 124.84 91.6125 124.26 91.9485 123.828C92.2845 123.396 92.7685 123.18 93.4005 123.18C93.6885 123.18 93.9485 123.232 94.1805 123.336C94.4125 123.432 94.6285 123.596 94.8285 123.828L94.1205 124.56C94.0005 124.432 93.8685 124.34 93.7245 124.284C93.5805 124.228 93.4125 124.2 93.2205 124.2C92.8205 124.2 92.4925 124.328 92.2365 124.584C91.9805 124.84 91.8525 125.228 91.8525 125.748ZM97.3554 129.048L94.8834 123.3H96.0834L97.9194 127.8H97.5354L99.4674 123.3H100.667L98.0034 129.048H97.3554ZM95.7234 131.388L97.4034 127.944L98.0034 129.048L96.9234 131.388H95.7234Z" fill="#3D4C5E"/>
<circle cx="107.316" cy="125" r="2" fill="#3D4C5E"/>
<path d="M115.414 129L118.534 121.332L119.65 121.368L116.602 129H115.414ZM114.106 121.68V120.672H119.65V121.368L119.158 121.68H114.106ZM124.715 129.12C124.235 129.12 123.811 129.028 123.443 128.844C123.083 128.652 122.787 128.396 122.555 128.076L123.347 127.344C123.499 127.568 123.687 127.74 123.911 127.86C124.143 127.98 124.399 128.04 124.679 128.04C124.959 128.04 125.207 127.98 125.423 127.86C125.639 127.74 125.807 127.564 125.927 127.332C126.055 127.092 126.119 126.8 126.119 126.456V120.672H127.247V126.396C127.247 126.948 127.135 127.428 126.911 127.836C126.695 128.244 126.395 128.56 126.011 128.784C125.635 129.008 125.203 129.12 124.715 129.12ZM131.221 129.12C130.757 129.12 130.337 129.016 129.961 128.808C129.593 128.592 129.305 128.296 129.097 127.92C128.889 127.544 128.785 127.108 128.785 126.612V123.3H129.865V126.564C129.865 126.876 129.917 127.148 130.021 127.38C130.133 127.604 130.293 127.776 130.501 127.896C130.709 128.016 130.953 128.076 131.233 128.076C131.657 128.076 131.989 127.944 132.229 127.68C132.469 127.408 132.589 127.036 132.589 126.564V123.3H133.669V126.612C133.669 127.108 133.565 127.544 133.357 127.92C133.149 128.296 132.861 128.592 132.493 128.808C132.133 129.016 131.709 129.12 131.221 129.12ZM139.148 129V125.676C139.148 125.244 139.012 124.888 138.74 124.608C138.468 124.328 138.116 124.188 137.684 124.188C137.396 124.188 137.14 124.252 136.916 124.38C136.692 124.508 136.516 124.684 136.388 124.908C136.26 125.132 136.196 125.388 136.196 125.676L135.752 125.424C135.752 124.992 135.848 124.608 136.04 124.272C136.232 123.936 136.5 123.672 136.844 123.48C137.188 123.28 137.576 123.18 138.008 123.18C138.44 123.18 138.82 123.288 139.148 123.504C139.484 123.72 139.748 124.004 139.94 124.356C140.132 124.7 140.228 125.068 140.228 125.46V129H139.148ZM135.116 129V123.3H136.196V129H135.116Z" fill="#3D4C5E"/>
<path d="M258.03 117.108V115.512H264.372V117.108H258.03ZM260.396 112.978H262.02V119.628H260.396V112.978ZM267.49 117.346V115.792H269.772C270.071 115.792 270.341 115.731 270.584 115.61C270.827 115.489 271.018 115.316 271.158 115.092C271.298 114.859 271.368 114.579 271.368 114.252C271.368 113.935 271.298 113.659 271.158 113.426C271.018 113.193 270.827 113.015 270.584 112.894C270.341 112.773 270.071 112.712 269.772 112.712H267.49V111.158H269.968C270.593 111.158 271.153 111.284 271.648 111.536C272.152 111.788 272.549 112.147 272.838 112.614C273.127 113.071 273.272 113.617 273.272 114.252C273.272 114.887 273.127 115.437 272.838 115.904C272.549 116.361 272.152 116.716 271.648 116.968C271.153 117.22 270.593 117.346 269.968 117.346H267.49ZM266.09 121V111.158H267.994V121H266.09ZM280.571 121L276.301 115.862L280.459 111.158H282.839L278.205 116.268V115.386L282.993 121H280.571ZM274.621 121V111.158H276.525V121H274.621ZM285.414 116.884V115.4H287.696C288.163 115.4 288.522 115.283 288.774 115.05C289.035 114.807 289.166 114.476 289.166 114.056C289.166 113.673 289.035 113.356 288.774 113.104C288.522 112.843 288.163 112.712 287.696 112.712H285.414V111.158H287.864C288.499 111.158 289.054 111.284 289.53 111.536C290.015 111.779 290.389 112.115 290.65 112.544C290.921 112.973 291.056 113.468 291.056 114.028C291.056 114.607 290.921 115.111 290.65 115.54C290.389 115.96 290.015 116.291 289.53 116.534C289.045 116.767 288.48 116.884 287.836 116.884H285.414ZM284.014 121V111.158H285.918V121H284.014ZM289.39 121L286.142 116.744L287.892 116.198L291.7 121H289.39ZM296.949 121V111.158H298.825V121H296.949ZM295.017 112.81V111.158H298.685V112.81H295.017ZM304.484 121.14C303.709 121.14 303.009 120.93 302.384 120.51C301.759 120.09 301.259 119.497 300.886 118.732C300.522 117.967 300.34 117.075 300.34 116.058C300.34 115.041 300.522 114.154 300.886 113.398C301.25 112.642 301.74 112.054 302.356 111.634C302.981 111.214 303.677 111.004 304.442 111.004C305.226 111.004 305.926 111.214 306.542 111.634C307.167 112.054 307.662 112.647 308.026 113.412C308.39 114.168 308.572 115.059 308.572 116.086C308.572 117.103 308.39 117.995 308.026 118.76C307.662 119.516 307.172 120.104 306.556 120.524C305.94 120.935 305.249 121.14 304.484 121.14ZM304.456 119.418C304.904 119.418 305.291 119.292 305.618 119.04C305.945 118.788 306.197 118.415 306.374 117.92C306.561 117.425 306.654 116.809 306.654 116.072C306.654 115.335 306.561 114.719 306.374 114.224C306.197 113.729 305.94 113.361 305.604 113.118C305.277 112.866 304.89 112.74 304.442 112.74C304.003 112.74 303.621 112.866 303.294 113.118C302.967 113.361 302.711 113.729 302.524 114.224C302.347 114.709 302.258 115.321 302.258 116.058C302.258 116.805 302.347 117.425 302.524 117.92C302.711 118.415 302.967 118.788 303.294 119.04C303.621 119.292 304.008 119.418 304.456 119.418ZM309.575 122.666L310.569 120.818L311.143 120.664C311.078 120.785 311.003 120.888 310.919 120.972C310.835 121.056 310.737 121.098 310.625 121.098C310.392 121.098 310.173 120.995 309.967 120.79C309.762 120.585 309.659 120.328 309.659 120.02C309.659 119.684 309.771 119.399 309.995 119.166C310.219 118.933 310.499 118.816 310.835 118.816C311.143 118.816 311.414 118.933 311.647 119.166C311.881 119.399 311.997 119.684 311.997 120.02C311.997 120.151 311.969 120.309 311.913 120.496C311.857 120.673 311.755 120.902 311.605 121.182L310.527 123.17L309.575 122.666ZM317.048 121.14C316.274 121.14 315.574 120.93 314.948 120.51C314.323 120.09 313.824 119.497 313.45 118.732C313.086 117.967 312.904 117.075 312.904 116.058C312.904 115.041 313.086 114.154 313.45 113.398C313.814 112.642 314.304 112.054 314.92 111.634C315.546 111.214 316.241 111.004 317.006 111.004C317.79 111.004 318.49 111.214 319.106 111.634C319.732 112.054 320.226 112.647 320.59 113.412C320.954 114.168 321.136 115.059 321.136 116.086C321.136 117.103 320.954 117.995 320.59 118.76C320.226 119.516 319.736 120.104 319.12 120.524C318.504 120.935 317.814 121.14 317.048 121.14ZM317.02 119.418C317.468 119.418 317.856 119.292 318.182 119.04C318.509 118.788 318.761 118.415 318.938 117.92C319.125 117.425 319.218 116.809 319.218 116.072C319.218 115.335 319.125 114.719 318.938 114.224C318.761 113.729 318.504 113.361 318.168 113.118C317.842 112.866 317.454 112.74 317.006 112.74C316.568 112.74 316.185 112.866 315.858 113.118C315.532 113.361 315.275 113.729 315.088 114.224C314.911 114.709 314.822 115.321 314.822 116.058C314.822 116.805 314.911 117.425 315.088 117.92C315.275 118.415 315.532 118.788 315.858 119.04C316.185 119.292 316.572 119.418 317.02 119.418ZM326.291 121.14C325.516 121.14 324.816 120.93 324.191 120.51C323.565 120.09 323.066 119.497 322.693 118.732C322.329 117.967 322.147 117.075 322.147 116.058C322.147 115.041 322.329 114.154 322.693 113.398C323.057 112.642 323.547 112.054 324.163 111.634C324.788 111.214 325.483 111.004 326.249 111.004C327.033 111.004 327.733 111.214 328.349 111.634C328.974 112.054 329.469 112.647 329.833 113.412C330.197 114.168 330.379 115.059 330.379 116.086C330.379 117.103 330.197 117.995 329.833 118.76C329.469 119.516 328.979 120.104 328.363 120.524C327.747 120.935 327.056 121.14 326.291 121.14ZM326.263 119.418C326.711 119.418 327.098 119.292 327.425 119.04C327.751 118.788 328.003 118.415 328.181 117.92C328.367 117.425 328.461 116.809 328.461 116.072C328.461 115.335 328.367 114.719 328.181 114.224C328.003 113.729 327.747 113.361 327.411 113.118C327.084 112.866 326.697 112.74 326.249 112.74C325.81 112.74 325.427 112.866 325.101 113.118C324.774 113.361 324.517 113.729 324.331 114.224C324.153 114.709 324.065 115.321 324.065 116.058C324.065 116.805 324.153 117.425 324.331 117.92C324.517 118.415 324.774 118.788 325.101 119.04C325.427 119.292 325.815 119.418 326.263 119.418ZM335.533 121.14C334.758 121.14 334.058 120.93 333.433 120.51C332.807 120.09 332.308 119.497 331.935 118.732C331.571 117.967 331.389 117.075 331.389 116.058C331.389 115.041 331.571 114.154 331.935 113.398C332.299 112.642 332.789 112.054 333.405 111.634C334.03 111.214 334.725 111.004 335.491 111.004C336.275 111.004 336.975 111.214 337.591 111.634C338.216 112.054 338.711 112.647 339.075 113.412C339.439 114.168 339.621 115.059 339.621 116.086C339.621 117.103 339.439 117.995 339.075 118.76C338.711 119.516 338.221 120.104 337.605 120.524C336.989 120.935 336.298 121.14 335.533 121.14ZM335.505 119.418C335.953 119.418 336.34 119.292 336.667 119.04C336.993 118.788 337.245 118.415 337.423 117.92C337.609 117.425 337.703 116.809 337.703 116.072C337.703 115.335 337.609 114.719 337.423 114.224C337.245 113.729 336.989 113.361 336.653 113.118C336.326 112.866 335.939 112.74 335.491 112.74C335.052 112.74 334.669 112.866 334.343 113.118C334.016 113.361 333.759 113.729 333.573 114.224C333.395 114.709 333.307 115.321 333.307 116.058C333.307 116.805 333.395 117.425 333.573 117.92C333.759 118.415 334.016 118.788 334.343 119.04C334.669 119.292 335.057 119.418 335.505 119.418Z" fill="#00C896"/>
<rect x="0.816406" y="160.5" width="355" height="71" rx="11.5" fill="white"/>
<rect x="0.816406" y="160.5" width="355" height="71" rx="11.5" stroke="url(#paint2_linear_556_66046)"/>
<rect x="16.3164" y="178" width="36" height="36" rx="18" fill="#0AADDF"/>
<g clip-path="url(#clip2_556_66046)">
<path d="M41.401 194.583C41.3694 195.929 41.0345 197.251 40.4213 198.45C39.8081 199.649 38.9324 200.694 37.8594 201.507V203.792C37.8594 203.98 37.7847 204.16 37.6519 204.293C37.5191 204.425 37.3389 204.5 37.151 204.5C36.9632 204.5 36.783 204.425 36.6502 204.293C36.5173 204.16 36.4427 203.98 36.4427 203.792V188.917C36.4364 188.651 36.5091 188.388 36.6517 188.164C36.7943 187.939 37.0004 187.761 37.2438 187.654C37.5235 187.54 37.8303 187.51 38.1267 187.568C38.423 187.626 38.6962 187.768 38.9127 187.979C40.5555 189.782 41.4459 192.145 41.401 194.583ZM33.6094 187.5C33.4215 187.5 33.2413 187.575 33.1085 187.707C32.9757 187.84 32.901 188.02 32.901 188.208V192.458C32.8992 192.896 32.7621 193.323 32.5086 193.68C32.255 194.037 31.8973 194.307 31.4844 194.453V188.208C31.4844 188.02 31.4097 187.84 31.2769 187.707C31.1441 187.575 30.9639 187.5 30.776 187.5C30.5882 187.5 30.408 187.575 30.2752 187.707C30.1423 187.84 30.0677 188.02 30.0677 188.208V194.453C29.6548 194.307 29.2971 194.037 29.0435 193.68C28.7899 193.323 28.6529 192.896 28.651 192.458V188.208C28.651 188.02 28.5764 187.84 28.4436 187.707C28.3107 187.575 28.1306 187.5 27.9427 187.5C27.7548 187.5 27.5747 187.575 27.4418 187.707C27.309 187.84 27.2344 188.02 27.2344 188.208V192.458C27.2354 193.274 27.5178 194.065 28.0339 194.698C28.55 195.33 29.2683 195.765 30.0677 195.929V203.792C30.0677 203.98 30.1423 204.16 30.2752 204.293C30.408 204.425 30.5882 204.5 30.776 204.5C30.9639 204.5 31.1441 204.425 31.2769 204.293C31.4097 204.16 31.4844 203.98 31.4844 203.792V195.929C32.2838 195.765 33.0021 195.33 33.5182 194.698C34.0343 194.065 34.3167 193.274 34.3177 192.458V188.208C34.3177 188.02 34.2431 187.84 34.1102 187.707C33.9774 187.575 33.7972 187.5 33.6094 187.5Z" fill="white"/>
</g>
<path d="M61.3244 186V176.158H63.2284V186H61.3244ZM62.7244 181.968V180.274H67.6804V181.968H62.7244ZM62.7244 177.838V176.158H67.9184V177.838H62.7244ZM72.1677 186.14C71.4864 186.14 70.8704 185.986 70.3197 185.678C69.7784 185.361 69.3444 184.936 69.0177 184.404C68.7004 183.863 68.5417 183.261 68.5417 182.598C68.5417 181.935 68.7004 181.343 69.0177 180.82C69.3351 180.288 69.7691 179.868 70.3197 179.56C70.8704 179.243 71.4817 179.084 72.1537 179.084C72.8444 179.084 73.4604 179.243 74.0017 179.56C74.5524 179.868 74.9864 180.288 75.3037 180.82C75.6211 181.343 75.7797 181.935 75.7797 182.598C75.7797 183.261 75.6211 183.863 75.3037 184.404C74.9864 184.936 74.5524 185.361 74.0017 185.678C73.4604 185.986 72.8491 186.14 72.1677 186.14ZM72.1537 184.432C72.4991 184.432 72.8024 184.357 73.0637 184.208C73.3344 184.049 73.5397 183.835 73.6797 183.564C73.8291 183.284 73.9037 182.967 73.9037 182.612C73.9037 182.257 73.8291 181.945 73.6797 181.674C73.5304 181.403 73.3251 181.193 73.0637 181.044C72.8024 180.885 72.4991 180.806 72.1537 180.806C71.8177 180.806 71.5191 180.885 71.2577 181.044C70.9964 181.193 70.7911 181.403 70.6417 181.674C70.4924 181.945 70.4177 182.257 70.4177 182.612C70.4177 182.967 70.4924 183.284 70.6417 183.564C70.7911 183.835 70.9964 184.049 71.2577 184.208C71.5191 184.357 71.8177 184.432 72.1537 184.432ZM80.1384 186.14C79.4571 186.14 78.8411 185.986 78.2904 185.678C77.7491 185.361 77.3151 184.936 76.9884 184.404C76.6711 183.863 76.5124 183.261 76.5124 182.598C76.5124 181.935 76.6711 181.343 76.9884 180.82C77.3058 180.288 77.7398 179.868 78.2904 179.56C78.8411 179.243 79.4524 179.084 80.1244 179.084C80.8151 179.084 81.4311 179.243 81.9724 179.56C82.5231 179.868 82.9571 180.288 83.2744 180.82C83.5918 181.343 83.7504 181.935 83.7504 182.598C83.7504 183.261 83.5918 183.863 83.2744 184.404C82.9571 184.936 82.5231 185.361 81.9724 185.678C81.4311 185.986 80.8198 186.14 80.1384 186.14ZM80.1244 184.432C80.4698 184.432 80.7731 184.357 81.0344 184.208C81.3051 184.049 81.5104 183.835 81.6504 183.564C81.7998 183.284 81.8744 182.967 81.8744 182.612C81.8744 182.257 81.7998 181.945 81.6504 181.674C81.5011 181.403 81.2958 181.193 81.0344 181.044C80.7731 180.885 80.4698 180.806 80.1244 180.806C79.7884 180.806 79.4898 180.885 79.2284 181.044C78.9671 181.193 78.7618 181.403 78.6124 181.674C78.4631 181.945 78.3884 182.257 78.3884 182.612C78.3884 182.967 78.4631 183.284 78.6124 183.564C78.7618 183.835 78.9671 184.049 79.2284 184.208C79.4898 184.357 79.7884 184.432 80.1244 184.432ZM87.7871 186.14C87.1618 186.14 86.6018 185.986 86.1071 185.678C85.6125 185.37 85.2205 184.95 84.9311 184.418C84.6511 183.886 84.5111 183.289 84.5111 182.626C84.5111 181.954 84.6511 181.352 84.9311 180.82C85.2205 180.288 85.6078 179.868 86.0931 179.56C86.5878 179.252 87.1525 179.098 87.7871 179.098C88.2725 179.098 88.7065 179.196 89.0891 179.392C89.4811 179.588 89.7938 179.863 90.0271 180.218C90.2698 180.563 90.4005 180.955 90.4191 181.394V183.802C90.4005 184.241 90.2745 184.637 90.0411 184.992C89.8078 185.347 89.4951 185.627 89.1031 185.832C88.7111 186.037 88.2725 186.14 87.7871 186.14ZM88.0951 184.446C88.4405 184.446 88.7391 184.371 88.9911 184.222C89.2525 184.063 89.4531 183.849 89.5931 183.578C89.7425 183.298 89.8171 182.976 89.8171 182.612C89.8171 182.257 89.7425 181.945 89.5931 181.674C89.4531 181.394 89.2525 181.179 88.9911 181.03C88.7391 180.871 88.4451 180.792 88.1091 180.792C87.7638 180.792 87.4605 180.871 87.1991 181.03C86.9471 181.189 86.7465 181.403 86.5971 181.674C86.4571 181.945 86.3871 182.257 86.3871 182.612C86.3871 182.976 86.4571 183.298 86.5971 183.578C86.7465 183.849 86.9518 184.063 87.2131 184.222C87.4745 184.371 87.7685 184.446 88.0951 184.446ZM91.5391 186H89.7191V184.18L90.0131 182.528L89.7051 180.904V175.878H91.5391V186Z" fill="#090B0E"/>
<path d="M61.4391 209V200.672H62.5671V209H61.4391ZM62.2071 205.34V204.308H66.5511V205.34H62.2071ZM62.2071 201.704V200.672H66.7551V201.704H62.2071ZM70.2336 209.12C69.7136 209.12 69.2416 208.992 68.8176 208.736C68.3936 208.472 68.0576 208.116 67.8096 207.668C67.5696 207.22 67.4496 206.716 67.4496 206.156C67.4496 205.596 67.5696 205.092 67.8096 204.644C68.0576 204.196 68.3896 203.84 68.8056 203.576C69.2296 203.312 69.7056 203.18 70.2336 203.18C70.6656 203.18 71.0496 203.272 71.3856 203.456C71.7296 203.632 72.0056 203.88 72.2136 204.2C72.4216 204.512 72.5376 204.876 72.5616 205.292V207.008C72.5376 207.416 72.4216 207.78 72.2136 208.1C72.0136 208.42 71.7416 208.672 71.3976 208.856C71.0616 209.032 70.6736 209.12 70.2336 209.12ZM70.4136 208.1C70.9496 208.1 71.3816 207.92 71.7096 207.56C72.0376 207.192 72.2016 206.724 72.2016 206.156C72.2016 205.764 72.1256 205.424 71.9736 205.136C71.8296 204.84 71.6216 204.612 71.3496 204.452C71.0776 204.284 70.7616 204.2 70.4016 204.2C70.0416 204.2 69.7216 204.284 69.4416 204.452C69.1696 204.62 68.9536 204.852 68.7936 205.148C68.6416 205.436 68.5656 205.768 68.5656 206.144C68.5656 206.528 68.6416 206.868 68.7936 207.164C68.9536 207.452 69.1736 207.68 69.4536 207.848C69.7336 208.016 70.0536 208.1 70.4136 208.1ZM72.1296 209V207.464L72.3336 206.072L72.1296 204.692V203.3H73.2216V209H72.1296ZM76.606 209.12C76.286 209.12 75.982 209.08 75.694 209C75.414 208.912 75.154 208.792 74.914 208.64C74.674 208.48 74.466 208.292 74.29 208.076L74.986 207.38C75.194 207.636 75.434 207.828 75.706 207.956C75.978 208.076 76.282 208.136 76.618 208.136C76.954 208.136 77.214 208.08 77.398 207.968C77.582 207.848 77.674 207.684 77.674 207.476C77.674 207.268 77.598 207.108 77.446 206.996C77.302 206.876 77.114 206.78 76.882 206.708C76.65 206.628 76.402 206.552 76.138 206.48C75.882 206.4 75.638 206.3 75.406 206.18C75.174 206.06 74.982 205.896 74.83 205.688C74.686 205.48 74.614 205.204 74.614 204.86C74.614 204.516 74.698 204.22 74.866 203.972C75.034 203.716 75.266 203.52 75.562 203.384C75.866 203.248 76.23 203.18 76.654 203.18C77.102 203.18 77.498 203.26 77.842 203.42C78.194 203.572 78.482 203.804 78.706 204.116L78.01 204.812C77.85 204.604 77.65 204.444 77.41 204.332C77.178 204.22 76.914 204.164 76.618 204.164C76.306 204.164 76.066 204.22 75.898 204.332C75.738 204.436 75.658 204.584 75.658 204.776C75.658 204.968 75.73 205.116 75.874 205.22C76.018 205.324 76.206 205.412 76.438 205.484C76.678 205.556 76.926 205.632 77.182 205.712C77.438 205.784 77.682 205.884 77.914 206.012C78.146 206.14 78.334 206.312 78.478 206.528C78.63 206.744 78.706 207.028 78.706 207.38C78.706 207.916 78.514 208.34 78.13 208.652C77.754 208.964 77.246 209.12 76.606 209.12ZM80.791 209V200.912H81.871V209H80.791ZM79.387 204.284V203.3H83.275V204.284H79.387ZM87.0211 209V200.672H88.1491V209H87.0211ZM87.7891 205.34V204.308H92.1331V205.34H87.7891ZM87.7891 201.704V200.672H92.3371V201.704H87.7891ZM95.9956 209.12C95.4356 209.12 94.9316 208.988 94.4836 208.724C94.0356 208.46 93.6796 208.104 93.4156 207.656C93.1516 207.2 93.0196 206.692 93.0196 206.132C93.0196 205.58 93.1516 205.084 93.4156 204.644C93.6796 204.196 94.0356 203.84 94.4836 203.576C94.9316 203.312 95.4356 203.18 95.9956 203.18C96.5476 203.18 97.0476 203.312 97.4956 203.576C97.9516 203.832 98.3116 204.184 98.5756 204.632C98.8396 205.08 98.9716 205.58 98.9716 206.132C98.9716 206.692 98.8396 207.2 98.5756 207.656C98.3116 208.104 97.9516 208.46 97.4956 208.724C97.0476 208.988 96.5476 209.12 95.9956 209.12ZM95.9956 208.076C96.3556 208.076 96.6756 207.992 96.9556 207.824C97.2356 207.656 97.4556 207.428 97.6156 207.14C97.7756 206.844 97.8556 206.508 97.8556 206.132C97.8556 205.764 97.7716 205.436 97.6036 205.148C97.4436 204.86 97.2236 204.636 96.9436 204.476C96.6716 204.308 96.3556 204.224 95.9956 204.224C95.6356 204.224 95.3156 204.308 95.0356 204.476C94.7556 204.636 94.5356 204.86 94.3756 205.148C94.2156 205.436 94.1356 205.764 94.1356 206.132C94.1356 206.508 94.2156 206.844 94.3756 207.14C94.5356 207.428 94.7556 207.656 95.0356 207.824C95.3156 207.992 95.6356 208.076 95.9956 208.076ZM102.792 209.12C102.232 209.12 101.728 208.988 101.28 208.724C100.832 208.46 100.476 208.104 100.212 207.656C99.9485 207.2 99.8165 206.692 99.8165 206.132C99.8165 205.58 99.9485 205.084 100.212 204.644C100.476 204.196 100.832 203.84 101.28 203.576C101.728 203.312 102.232 203.18 102.792 203.18C103.344 203.18 103.844 203.312 104.292 203.576C104.748 203.832 105.108 204.184 105.372 204.632C105.636 205.08 105.768 205.58 105.768 206.132C105.768 206.692 105.636 207.2 105.372 207.656C105.108 208.104 104.748 208.46 104.292 208.724C103.844 208.988 103.344 209.12 102.792 209.12ZM102.792 208.076C103.152 208.076 103.472 207.992 103.752 207.824C104.032 207.656 104.252 207.428 104.412 207.14C104.572 206.844 104.652 206.508 104.652 206.132C104.652 205.764 104.568 205.436 104.4 205.148C104.24 204.86 104.02 204.636 103.74 204.476C103.468 204.308 103.152 204.224 102.792 204.224C102.432 204.224 102.112 204.308 101.832 204.476C101.552 204.636 101.332 204.86 101.172 205.148C101.012 205.436 100.932 205.764 100.932 206.132C100.932 206.508 101.012 206.844 101.172 207.14C101.332 207.428 101.552 207.656 101.832 207.824C102.112 207.992 102.432 208.076 102.792 208.076ZM109.397 209.12C108.869 209.12 108.397 208.992 107.981 208.736C107.565 208.472 107.233 208.116 106.985 207.668C106.745 207.22 106.625 206.716 106.625 206.156C106.625 205.596 106.745 205.092 106.985 204.644C107.233 204.196 107.565 203.84 107.981 203.576C108.397 203.312 108.869 203.18 109.397 203.18C109.821 203.18 110.205 203.272 110.549 203.456C110.893 203.632 111.169 203.88 111.377 204.2C111.593 204.512 111.713 204.876 111.737 205.292V207.008C111.713 207.416 111.597 207.78 111.389 208.1C111.181 208.42 110.905 208.672 110.561 208.856C110.217 209.032 109.829 209.12 109.397 209.12ZM109.577 208.1C109.937 208.1 110.249 208.016 110.513 207.848C110.785 207.68 110.997 207.452 111.149 207.164C111.301 206.868 111.377 206.532 111.377 206.156C111.377 205.764 111.297 205.424 111.137 205.136C110.985 204.848 110.773 204.62 110.501 204.452C110.237 204.284 109.925 204.2 109.565 204.2C109.205 204.2 108.889 204.284 108.617 204.452C108.345 204.62 108.129 204.852 107.969 205.148C107.817 205.436 107.741 205.768 107.741 206.144C107.741 206.528 107.817 206.868 107.969 207.164C108.129 207.452 108.345 207.68 108.617 207.848C108.897 208.016 109.217 208.1 109.577 208.1ZM112.397 209H111.305V207.464L111.509 206.072L111.305 204.692V200.432H112.397V209Z" fill="#3D4C5E"/>
<circle cx="119.316" cy="205" r="2" fill="#3D4C5E"/>
<path d="M126.15 208.316L129.222 205.076C129.534 204.756 129.778 204.48 129.954 204.248C130.13 204.008 130.254 203.788 130.326 203.588C130.406 203.388 130.446 203.18 130.446 202.964C130.446 202.54 130.31 202.208 130.038 201.968C129.766 201.728 129.414 201.608 128.982 201.608C128.558 201.608 128.186 201.712 127.866 201.92C127.546 202.12 127.262 202.432 127.014 202.856L126.222 202.196C126.55 201.652 126.946 201.244 127.41 200.972C127.874 200.692 128.41 200.552 129.018 200.552C129.53 200.552 129.974 200.652 130.35 200.852C130.734 201.052 131.03 201.332 131.238 201.692C131.446 202.052 131.55 202.472 131.55 202.952C131.55 203.296 131.506 203.604 131.418 203.876C131.338 204.148 131.19 204.428 130.974 204.716C130.766 204.996 130.474 205.332 130.098 205.724L127.614 208.28L126.15 208.316ZM126.15 209V208.316L127.11 207.992H131.742V209H126.15ZM135.63 209.12C135.078 209.12 134.582 208.992 134.142 208.736C133.71 208.48 133.366 208.136 133.11 207.704C132.854 207.272 132.726 206.792 132.726 206.264C132.726 205.528 132.982 204.796 133.494 204.068L135.942 200.672H137.25L134.742 204.092L134.334 204.308C134.43 204.14 134.546 204 134.682 203.888C134.818 203.768 134.986 203.676 135.186 203.612C135.386 203.548 135.622 203.516 135.894 203.516C136.382 203.516 136.822 203.632 137.214 203.864C137.614 204.096 137.934 204.416 138.174 204.824C138.422 205.224 138.546 205.692 138.546 206.228C138.546 206.756 138.414 207.24 138.15 207.68C137.894 208.12 137.542 208.472 137.094 208.736C136.654 208.992 136.166 209.12 135.63 209.12ZM135.63 208.064C135.966 208.064 136.266 207.984 136.53 207.824C136.802 207.656 137.014 207.436 137.166 207.164C137.326 206.884 137.406 206.572 137.406 206.228C137.406 205.884 137.326 205.576 137.166 205.304C137.014 205.024 136.802 204.804 136.53 204.644C136.266 204.484 135.966 204.404 135.63 204.404C135.294 204.404 134.99 204.484 134.718 204.644C134.454 204.804 134.242 205.024 134.082 205.304C133.93 205.576 133.854 205.884 133.854 206.228C133.854 206.572 133.93 206.884 134.082 207.164C134.242 207.444 134.454 207.664 134.718 207.824C134.99 207.984 135.294 208.064 135.63 208.064ZM143.696 209.12C143.216 209.12 142.792 209.028 142.424 208.844C142.064 208.652 141.768 208.396 141.536 208.076L142.328 207.344C142.48 207.568 142.668 207.74 142.892 207.86C143.124 207.98 143.38 208.04 143.66 208.04C143.94 208.04 144.188 207.98 144.404 207.86C144.62 207.74 144.788 207.564 144.908 207.332C145.036 207.092 145.1 206.8 145.1 206.456V200.672H146.228V206.396C146.228 206.948 146.116 207.428 145.892 207.836C145.676 208.244 145.376 208.56 144.992 208.784C144.616 209.008 144.184 209.12 143.696 209.12ZM150.201 209.12C149.737 209.12 149.317 209.016 148.941 208.808C148.573 208.592 148.285 208.296 148.077 207.92C147.869 207.544 147.765 207.108 147.765 206.612V203.3H148.845V206.564C148.845 206.876 148.897 207.148 149.001 207.38C149.113 207.604 149.273 207.776 149.481 207.896C149.689 208.016 149.933 208.076 150.213 208.076C150.637 208.076 150.969 207.944 151.209 207.68C151.449 207.408 151.569 207.036 151.569 206.564V203.3H152.649V206.612C152.649 207.108 152.545 207.544 152.337 207.92C152.129 208.296 151.841 208.592 151.473 208.808C151.113 209.016 150.689 209.12 150.201 209.12ZM158.129 209V205.676C158.129 205.244 157.993 204.888 157.721 204.608C157.449 204.328 157.097 204.188 156.665 204.188C156.377 204.188 156.121 204.252 155.897 204.38C155.673 204.508 155.497 204.684 155.369 204.908C155.241 205.132 155.177 205.388 155.177 205.676L154.733 205.424C154.733 204.992 154.829 204.608 155.021 204.272C155.213 203.936 155.481 203.672 155.825 203.48C156.169 203.28 156.557 203.18 156.989 203.18C157.421 203.18 157.801 203.288 158.129 203.504C158.465 203.72 158.729 204.004 158.921 204.356C159.113 204.7 159.209 205.068 159.209 205.46V209H158.129ZM154.097 209V203.3H155.177V209H154.097Z" fill="#3D4C5E"/>
<path d="M271.128 198.256V196.59H275.972V198.256H271.128ZM279.191 197.346V195.792H281.473C281.772 195.792 282.043 195.731 282.285 195.61C282.528 195.489 282.719 195.316 282.859 195.092C282.999 194.859 283.069 194.579 283.069 194.252C283.069 193.935 282.999 193.659 282.859 193.426C282.719 193.193 282.528 193.015 282.285 192.894C282.043 192.773 281.772 192.712 281.473 192.712H279.191V191.158H281.669C282.295 191.158 282.855 191.284 283.349 191.536C283.853 191.788 284.25 192.147 284.539 192.614C284.829 193.071 284.973 193.617 284.973 194.252C284.973 194.887 284.829 195.437 284.539 195.904C284.25 196.361 283.853 196.716 283.349 196.968C282.855 197.22 282.295 197.346 281.669 197.346H279.191ZM277.791 201V191.158H279.695V201H277.791ZM292.272 201L288.002 195.862L292.16 191.158H294.54L289.906 196.268V195.386L294.694 201H292.272ZM286.322 201V191.158H288.226V201H286.322ZM297.115 196.884V195.4H299.397C299.864 195.4 300.223 195.283 300.475 195.05C300.736 194.807 300.867 194.476 300.867 194.056C300.867 193.673 300.736 193.356 300.475 193.104C300.223 192.843 299.864 192.712 299.397 192.712H297.115V191.158H299.565C300.2 191.158 300.755 191.284 301.231 191.536C301.716 191.779 302.09 192.115 302.351 192.544C302.622 192.973 302.757 193.468 302.757 194.028C302.757 194.607 302.622 195.111 302.351 195.54C302.09 195.96 301.716 196.291 301.231 196.534C300.746 196.767 300.181 196.884 299.537 196.884H297.115ZM295.715 201V191.158H297.619V201H295.715ZM301.091 201L297.843 196.744L299.593 196.198L303.401 201H301.091ZM308.65 201V191.158H310.526V201H308.65ZM306.718 192.81V191.158H310.386V192.81H306.718ZM312.335 202.666L313.329 200.818L313.903 200.664C313.838 200.785 313.763 200.888 313.679 200.972C313.595 201.056 313.497 201.098 313.385 201.098C313.152 201.098 312.932 200.995 312.727 200.79C312.522 200.585 312.419 200.328 312.419 200.02C312.419 199.684 312.531 199.399 312.755 199.166C312.979 198.933 313.259 198.816 313.595 198.816C313.903 198.816 314.174 198.933 314.407 199.166C314.64 199.399 314.757 199.684 314.757 200.02C314.757 200.151 314.729 200.309 314.673 200.496C314.617 200.673 314.514 200.902 314.365 201.182L313.287 203.17L312.335 202.666ZM318.947 201.14C318.284 201.14 317.678 201.023 317.127 200.79C316.576 200.547 316.114 200.202 315.741 199.754L317.001 198.508C317.188 198.788 317.454 199.012 317.799 199.18C318.144 199.348 318.518 199.432 318.919 199.432C319.292 199.432 319.614 199.367 319.885 199.236C320.156 199.096 320.366 198.905 320.515 198.662C320.674 198.41 320.753 198.121 320.753 197.794C320.753 197.449 320.674 197.155 320.515 196.912C320.366 196.669 320.146 196.483 319.857 196.352C319.568 196.221 319.222 196.156 318.821 196.156C318.644 196.156 318.462 196.17 318.275 196.198C318.088 196.217 317.93 196.249 317.799 196.296L318.639 195.232C318.872 195.157 319.101 195.097 319.325 195.05C319.558 194.994 319.773 194.966 319.969 194.966C320.473 194.966 320.926 195.087 321.327 195.33C321.738 195.563 322.06 195.899 322.293 196.338C322.536 196.767 322.657 197.276 322.657 197.864C322.657 198.517 322.503 199.091 322.195 199.586C321.887 200.071 321.453 200.454 320.893 200.734C320.342 201.005 319.694 201.14 318.947 201.14ZM317.799 196.296V195.204L320.319 192.278L322.503 192.25L319.899 195.232L317.799 196.296ZM316.287 192.81V191.158H322.503V192.25L320.949 192.81H316.287ZM323.522 199.908L327.232 196.03C327.494 195.75 327.704 195.503 327.862 195.288C328.03 195.064 328.152 194.854 328.226 194.658C328.301 194.453 328.338 194.247 328.338 194.042C328.338 193.631 328.203 193.309 327.932 193.076C327.671 192.843 327.33 192.726 326.91 192.726C326.481 192.726 326.098 192.838 325.762 193.062C325.436 193.286 325.128 193.641 324.838 194.126L323.536 193.02C323.928 192.357 324.414 191.858 324.992 191.522C325.58 191.177 326.252 191.004 327.008 191.004C327.652 191.004 328.212 191.13 328.688 191.382C329.174 191.634 329.547 191.984 329.808 192.432C330.07 192.88 330.2 193.403 330.2 194C330.2 194.401 330.149 194.765 330.046 195.092C329.953 195.419 329.79 195.745 329.556 196.072C329.332 196.389 329.02 196.749 328.618 197.15L325.916 199.908H323.522ZM323.522 201V199.908L325.146 199.348H330.41V201H323.522ZM335.544 201.14C334.77 201.14 334.07 200.93 333.444 200.51C332.819 200.09 332.32 199.497 331.946 198.732C331.582 197.967 331.4 197.075 331.4 196.058C331.4 195.041 331.582 194.154 331.946 193.398C332.31 192.642 332.8 192.054 333.416 191.634C334.042 191.214 334.737 191.004 335.502 191.004C336.286 191.004 336.986 191.214 337.602 191.634C338.228 192.054 338.722 192.647 339.086 193.412C339.45 194.168 339.632 195.059 339.632 196.086C339.632 197.103 339.45 197.995 339.086 198.76C338.722 199.516 338.232 200.104 337.616 200.524C337 200.935 336.31 201.14 335.544 201.14ZM335.516 199.418C335.964 199.418 336.352 199.292 336.678 199.04C337.005 198.788 337.257 198.415 337.434 197.92C337.621 197.425 337.714 196.809 337.714 196.072C337.714 195.335 337.621 194.719 337.434 194.224C337.257 193.729 337 193.361 336.664 193.118C336.338 192.866 335.95 192.74 335.502 192.74C335.064 192.74 334.681 192.866 334.354 193.118C334.028 193.361 333.771 193.729 333.584 194.224C333.407 194.709 333.318 195.321 333.318 196.058C333.318 196.805 333.407 197.425 333.584 197.92C333.771 198.415 334.028 198.788 334.354 199.04C334.681 199.292 335.068 199.418 335.516 199.418Z" fill="#EF4D56"/>
<rect x="0.816406" y="240.5" width="355" height="71" rx="11.5" fill="white"/>
<rect x="0.816406" y="240.5" width="355" height="71" rx="11.5" stroke="url(#paint3_linear_556_66046)"/>
<rect x="16.3164" y="255" width="42" height="42" rx="21" fill="#FF9F43"/>
<g clip-path="url(#clip3_556_66046)">
<path d="M35.0664 267H39.5664C39.5664 268.24 38.5569 269.25 37.3164 269.25C36.0759 269.25 35.0664 268.24 35.0664 267ZM43.9277 267.896C43.0082 267.402 42.0459 267.123 41.0627 267.038C41.0417 269.088 39.3714 270.75 37.3164 270.75C35.2614 270.75 33.5912 269.088 33.5702 267.038C32.5869 267.123 31.6247 267.403 30.7052 267.896C29.2322 268.688 28.3164 270.251 28.3164 271.977V280.5C28.3164 281.743 29.3237 282.75 30.5664 282.75V273.75C30.5664 273.336 30.9024 273 31.3164 273C31.7304 273 32.0664 273.336 32.0664 273.75V282C32.0664 283.657 33.4097 285 35.0664 285H39.5664C41.2232 285 42.5664 283.657 42.5664 282V273.75C42.5664 273.336 42.9024 273 43.3164 273C43.7304 273 44.0664 273.336 44.0664 273.75V282.732C45.3092 282.732 46.3164 281.725 46.3164 280.482V271.977C46.3164 270.251 45.4007 268.687 43.9277 267.896Z" fill="white"/>
</g>
<path d="M67.3244 266V256.158H69.2284V266H67.3244ZM68.7244 261.968V260.274H73.6804V261.968H68.7244ZM68.7244 257.838V256.158H73.9184V257.838H68.7244ZM75.2222 266V259.238H77.0562V266H75.2222ZM77.0562 262.262L76.3422 261.786C76.4262 260.955 76.6688 260.302 77.0702 259.826C77.4715 259.341 78.0502 259.098 78.8062 259.098C79.1328 259.098 79.4268 259.154 79.6882 259.266C79.9495 259.369 80.1875 259.541 80.4022 259.784L79.2542 261.1C79.1515 260.988 79.0255 260.904 78.8762 260.848C78.7362 260.792 78.5728 260.764 78.3862 260.764C77.9942 260.764 77.6722 260.89 77.4202 261.142C77.1775 261.385 77.0562 261.758 77.0562 262.262ZM84.089 266.14C83.3796 266.14 82.7496 265.991 82.199 265.692C81.6483 265.384 81.2096 264.964 80.883 264.432C80.5656 263.9 80.407 263.293 80.407 262.612C80.407 261.94 80.561 261.343 80.869 260.82C81.1863 260.288 81.6156 259.868 82.157 259.56C82.6983 259.243 83.3003 259.084 83.963 259.084C84.6163 259.084 85.1903 259.233 85.685 259.532C86.189 259.821 86.581 260.223 86.861 260.736C87.1503 261.24 87.295 261.814 87.295 262.458C87.295 262.579 87.2856 262.705 87.267 262.836C87.2576 262.957 87.2343 263.097 87.197 263.256L81.513 263.27V261.898L86.343 261.884L85.601 262.458C85.5823 262.057 85.5076 261.721 85.377 261.45C85.2556 261.179 85.0736 260.974 84.831 260.834C84.5976 260.685 84.3083 260.61 83.963 260.61C83.599 260.61 83.2816 260.694 83.011 260.862C82.7403 261.021 82.5303 261.249 82.381 261.548C82.241 261.837 82.171 262.183 82.171 262.584C82.171 262.995 82.2456 263.354 82.395 263.662C82.5536 263.961 82.7776 264.194 83.067 264.362C83.3563 264.521 83.6923 264.6 84.075 264.6C84.4203 264.6 84.733 264.544 85.013 264.432C85.293 264.311 85.5356 264.133 85.741 263.9L86.819 264.978C86.4923 265.361 86.091 265.65 85.615 265.846C85.1483 266.042 84.6396 266.14 84.089 266.14ZM91.6632 266.14C90.9539 266.14 90.3239 265.991 89.7732 265.692C89.2225 265.384 88.7839 264.964 88.4572 264.432C88.1399 263.9 87.9812 263.293 87.9812 262.612C87.9812 261.94 88.1352 261.343 88.4432 260.82C88.7605 260.288 89.1899 259.868 89.7312 259.56C90.2725 259.243 90.8745 259.084 91.5372 259.084C92.1905 259.084 92.7645 259.233 93.2592 259.532C93.7632 259.821 94.1552 260.223 94.4352 260.736C94.7245 261.24 94.8692 261.814 94.8692 262.458C94.8692 262.579 94.8599 262.705 94.8412 262.836C94.8319 262.957 94.8085 263.097 94.7712 263.256L89.0872 263.27V261.898L93.9172 261.884L93.1752 262.458C93.1565 262.057 93.0819 261.721 92.9512 261.45C92.8299 261.179 92.6479 260.974 92.4052 260.834C92.1719 260.685 91.8825 260.61 91.5372 260.61C91.1732 260.61 90.8559 260.694 90.5852 260.862C90.3145 261.021 90.1045 261.249 89.9552 261.548C89.8152 261.837 89.7452 262.183 89.7452 262.584C89.7452 262.995 89.8199 263.354 89.9692 263.662C90.1279 263.961 90.3519 264.194 90.6412 264.362C90.9305 264.521 91.2665 264.6 91.6492 264.6C91.9945 264.6 92.3072 264.544 92.5872 264.432C92.8672 264.311 93.1099 264.133 93.3152 263.9L94.3932 264.978C94.0665 265.361 93.6652 265.65 93.1892 265.846C92.7225 266.042 92.2139 266.14 91.6632 266.14ZM96.0034 266V255.878H97.8374V266H96.0034ZM102.29 266.14C101.674 266.14 101.119 265.986 100.624 265.678C100.13 265.37 99.7424 264.95 99.4624 264.418C99.1824 263.886 99.0424 263.289 99.0424 262.626C99.0424 261.954 99.1824 261.352 99.4624 260.82C99.7424 260.288 100.13 259.868 100.624 259.56C101.119 259.252 101.674 259.098 102.29 259.098C102.776 259.098 103.21 259.196 103.592 259.392C103.975 259.588 104.278 259.863 104.502 260.218C104.736 260.563 104.862 260.955 104.88 261.394V263.83C104.862 264.278 104.736 264.675 104.502 265.02C104.278 265.365 103.975 265.641 103.592 265.846C103.21 266.042 102.776 266.14 102.29 266.14ZM102.626 264.446C103.14 264.446 103.555 264.278 103.872 263.942C104.19 263.597 104.348 263.153 104.348 262.612C104.348 262.257 104.274 261.945 104.124 261.674C103.984 261.394 103.784 261.179 103.522 261.03C103.27 260.871 102.972 260.792 102.626 260.792C102.29 260.792 101.992 260.871 101.73 261.03C101.478 261.179 101.278 261.394 101.128 261.674C100.988 261.945 100.918 262.257 100.918 262.612C100.918 262.976 100.988 263.298 101.128 263.578C101.278 263.849 101.478 264.063 101.73 264.222C101.992 264.371 102.29 264.446 102.626 264.446ZM104.25 266V264.18L104.544 262.528L104.25 260.904V259.238H106.07V266H104.25ZM112.243 266V262.122C112.243 261.721 112.117 261.394 111.865 261.142C111.613 260.89 111.286 260.764 110.885 260.764C110.624 260.764 110.39 260.82 110.185 260.932C109.98 261.044 109.816 261.203 109.695 261.408C109.583 261.613 109.527 261.851 109.527 262.122L108.813 261.758C108.813 261.226 108.925 260.764 109.149 260.372C109.382 259.971 109.7 259.658 110.101 259.434C110.512 259.21 110.974 259.098 111.487 259.098C111.982 259.098 112.425 259.224 112.817 259.476C113.209 259.719 113.517 260.041 113.741 260.442C113.965 260.834 114.077 261.259 114.077 261.716V266H112.243ZM107.693 266V259.238H109.527V266H107.693ZM118.746 266.14C118.056 266.14 117.435 265.986 116.884 265.678C116.334 265.37 115.9 264.95 115.582 264.418C115.265 263.886 115.106 263.289 115.106 262.626C115.106 261.954 115.265 261.352 115.582 260.82C115.9 260.288 116.334 259.868 116.884 259.56C117.444 259.243 118.065 259.084 118.746 259.084C119.278 259.084 119.768 259.182 120.216 259.378C120.664 259.574 121.052 259.854 121.378 260.218L120.202 261.408C120.025 261.212 119.81 261.063 119.558 260.96C119.316 260.857 119.045 260.806 118.746 260.806C118.41 260.806 118.107 260.885 117.836 261.044C117.575 261.193 117.365 261.403 117.206 261.674C117.057 261.935 116.982 262.248 116.982 262.612C116.982 262.967 117.057 263.284 117.206 263.564C117.365 263.835 117.575 264.049 117.836 264.208C118.107 264.357 118.41 264.432 118.746 264.432C119.054 264.432 119.33 264.381 119.572 264.278C119.824 264.166 120.039 264.007 120.216 263.802L121.406 264.992C121.061 265.365 120.664 265.65 120.216 265.846C119.768 266.042 119.278 266.14 118.746 266.14ZM125.528 266.14C124.819 266.14 124.189 265.991 123.638 265.692C123.088 265.384 122.649 264.964 122.322 264.432C122.005 263.9 121.846 263.293 121.846 262.612C121.846 261.94 122 261.343 122.308 260.82C122.626 260.288 123.055 259.868 123.596 259.56C124.138 259.243 124.74 259.084 125.402 259.084C126.056 259.084 126.63 259.233 127.124 259.532C127.628 259.821 128.02 260.223 128.3 260.736C128.59 261.24 128.734 261.814 128.734 262.458C128.734 262.579 128.725 262.705 128.706 262.836C128.697 262.957 128.674 263.097 128.636 263.256L122.952 263.27V261.898L127.782 261.884L127.04 262.458C127.022 262.057 126.947 261.721 126.816 261.45C126.695 261.179 126.513 260.974 126.27 260.834C126.037 260.685 125.748 260.61 125.402 260.61C125.038 260.61 124.721 260.694 124.45 260.862C124.18 261.021 123.97 261.249 123.82 261.548C123.68 261.837 123.61 262.183 123.61 262.584C123.61 262.995 123.685 263.354 123.834 263.662C123.993 263.961 124.217 264.194 124.506 264.362C124.796 264.521 125.132 264.6 125.514 264.6C125.86 264.6 126.172 264.544 126.452 264.432C126.732 264.311 126.975 264.133 127.18 263.9L128.258 264.978C127.932 265.361 127.53 265.65 127.054 265.846C126.588 266.042 126.079 266.14 125.528 266.14Z" fill="#090B0E"/>
<path d="M71.2093 289.12C70.6093 289.12 70.0533 289.012 69.5413 288.796C69.0293 288.572 68.5813 288.264 68.1973 287.872C67.8213 287.48 67.5293 287.024 67.3213 286.504C67.1133 285.984 67.0093 285.428 67.0093 284.836C67.0093 284.236 67.1133 283.676 67.3213 283.156C67.5293 282.636 67.8213 282.184 68.1973 281.8C68.5813 281.408 69.0253 281.104 69.5293 280.888C70.0413 280.664 70.5973 280.552 71.1973 280.552C71.8533 280.552 72.4293 280.664 72.9253 280.888C73.4213 281.112 73.8613 281.416 74.2453 281.8L73.4653 282.58C73.2013 282.284 72.8773 282.052 72.4933 281.884C72.1173 281.716 71.6853 281.632 71.1973 281.632C70.7573 281.632 70.3533 281.712 69.9853 281.872C69.6173 282.024 69.2973 282.244 69.0253 282.532C68.7533 282.82 68.5413 283.16 68.3893 283.552C68.2453 283.944 68.1733 284.372 68.1733 284.836C68.1733 285.3 68.2453 285.728 68.3893 286.12C68.5413 286.512 68.7533 286.852 69.0253 287.14C69.2973 287.428 69.6173 287.652 69.9853 287.812C70.3533 287.964 70.7573 288.04 71.1973 288.04C71.7173 288.04 72.1693 287.956 72.5533 287.788C72.9373 287.612 73.2613 287.376 73.5253 287.08L74.3053 287.848C73.9213 288.248 73.4693 288.56 72.9493 288.784C72.4373 289.008 71.8573 289.12 71.2093 289.12ZM75.499 289V280.432H76.579V289H75.499ZM80.7632 289.12C80.2032 289.12 79.6992 288.988 79.2512 288.724C78.8032 288.46 78.4472 288.104 78.1832 287.656C77.9192 287.2 77.7872 286.692 77.7872 286.132C77.7872 285.58 77.9192 285.084 78.1832 284.644C78.4472 284.196 78.8032 283.84 79.2512 283.576C79.6992 283.312 80.2032 283.18 80.7632 283.18C81.3152 283.18 81.8152 283.312 82.2632 283.576C82.7192 283.832 83.0792 284.184 83.3432 284.632C83.6072 285.08 83.7392 285.58 83.7392 286.132C83.7392 286.692 83.6072 287.2 83.3432 287.656C83.0792 288.104 82.7192 288.46 82.2632 288.724C81.8152 288.988 81.3152 289.12 80.7632 289.12ZM80.7632 288.076C81.1232 288.076 81.4432 287.992 81.7232 287.824C82.0032 287.656 82.2232 287.428 82.3832 287.14C82.5432 286.844 82.6232 286.508 82.6232 286.132C82.6232 285.764 82.5392 285.436 82.3712 285.148C82.2112 284.86 81.9912 284.636 81.7112 284.476C81.4392 284.308 81.1232 284.224 80.7632 284.224C80.4032 284.224 80.0832 284.308 79.8032 284.476C79.5232 284.636 79.3032 284.86 79.1432 285.148C78.9832 285.436 78.9032 285.764 78.9032 286.132C78.9032 286.508 78.9832 286.844 79.1432 287.14C79.3032 287.428 79.5232 287.656 79.8032 287.824C80.0832 287.992 80.4032 288.076 80.7632 288.076ZM85.6563 289V280.912H86.7363V289H85.6563ZM84.2523 284.284V283.3H88.1403V284.284H84.2523ZM93.2303 289V285.676C93.2303 285.244 93.0943 284.888 92.8223 284.608C92.5503 284.328 92.1983 284.188 91.7663 284.188C91.4783 284.188 91.2223 284.252 90.9983 284.38C90.7743 284.508 90.5983 284.684 90.4703 284.908C90.3423 285.132 90.2783 285.388 90.2783 285.676L89.8343 285.424C89.8343 284.992 89.9303 284.608 90.1223 284.272C90.3143 283.936 90.5823 283.672 90.9263 283.48C91.2703 283.28 91.6583 283.18 92.0903 283.18C92.5223 283.18 92.9023 283.276 93.2303 283.468C93.5663 283.66 93.8303 283.928 94.0223 284.272C94.2143 284.616 94.3103 285.012 94.3103 285.46V289H93.2303ZM89.1982 289V280.432H90.2783V289H89.1982ZM95.7845 289V283.3H96.8645V289H95.7845ZM96.3245 282.16C96.1245 282.16 95.9605 282.096 95.8325 281.968C95.7045 281.832 95.6405 281.664 95.6405 281.464C95.6405 281.272 95.7045 281.112 95.8325 280.984C95.9605 280.848 96.1245 280.78 96.3245 280.78C96.5245 280.78 96.6885 280.848 96.8165 280.984C96.9445 281.112 97.0085 281.272 97.0085 281.464C97.0085 281.664 96.9445 281.832 96.8165 281.968C96.6885 282.096 96.5245 282.16 96.3245 282.16ZM102.488 289V285.676C102.488 285.244 102.352 284.888 102.08 284.608C101.808 284.328 101.456 284.188 101.024 284.188C100.736 284.188 100.48 284.252 100.256 284.38C100.032 284.508 99.8561 284.684 99.7281 284.908C99.6001 285.132 99.5361 285.388 99.5361 285.676L99.0921 285.424C99.0921 284.992 99.1881 284.608 99.3801 284.272C99.5721 283.936 99.8401 283.672 100.184 283.48C100.528 283.28 100.916 283.18 101.348 283.18C101.78 283.18 102.16 283.288 102.488 283.504C102.824 283.72 103.088 284.004 103.28 284.356C103.472 284.7 103.568 285.068 103.568 285.46V289H102.488ZM98.4561 289V283.3H99.5361V289H98.4561ZM107.394 291.508C106.81 291.508 106.29 291.4 105.834 291.184C105.386 290.968 105.026 290.664 104.754 290.272L105.45 289.564C105.682 289.86 105.958 290.084 106.278 290.236C106.598 290.396 106.978 290.476 107.418 290.476C108.002 290.476 108.462 290.32 108.798 290.008C109.142 289.704 109.314 289.292 109.314 288.772V287.356L109.506 286.072L109.314 284.8V283.3H110.394V288.772C110.394 289.316 110.266 289.792 110.01 290.2C109.762 290.608 109.41 290.928 108.954 291.16C108.506 291.392 107.986 291.508 107.394 291.508ZM107.394 288.904C106.874 288.904 106.406 288.78 105.99 288.532C105.582 288.284 105.258 287.944 105.018 287.512C104.778 287.072 104.658 286.58 104.658 286.036C104.658 285.492 104.778 285.008 105.018 284.584C105.258 284.152 105.582 283.812 105.99 283.564C106.406 283.308 106.874 283.18 107.394 283.18C107.842 283.18 108.238 283.268 108.582 283.444C108.926 283.62 109.198 283.868 109.398 284.188C109.606 284.5 109.718 284.868 109.734 285.292V286.804C109.71 287.22 109.594 287.588 109.386 287.908C109.186 288.22 108.914 288.464 108.57 288.64C108.226 288.816 107.834 288.904 107.394 288.904ZM107.61 287.884C107.962 287.884 108.27 287.808 108.534 287.656C108.806 287.504 109.014 287.292 109.158 287.02C109.302 286.74 109.374 286.416 109.374 286.048C109.374 285.68 109.298 285.36 109.146 285.088C109.002 284.808 108.798 284.592 108.534 284.44C108.27 284.28 107.958 284.2 107.598 284.2C107.238 284.2 106.922 284.28 106.65 284.44C106.378 284.592 106.162 284.808 106.002 285.088C105.85 285.36 105.774 285.676 105.774 286.036C105.774 286.396 105.85 286.716 106.002 286.996C106.162 287.276 106.378 287.496 106.65 287.656C106.93 287.808 107.25 287.884 107.61 287.884Z" fill="#3D4C5E"/>
<circle cx="117.316" cy="285" r="2" fill="#3D4C5E"/>
<path d="M125.221 289L127.729 285.58L128.137 285.364C128.041 285.524 127.925 285.664 127.789 285.784C127.653 285.904 127.485 285.996 127.285 286.06C127.093 286.124 126.857 286.156 126.577 286.156C126.097 286.156 125.653 286.04 125.245 285.808C124.845 285.576 124.525 285.256 124.285 284.848C124.045 284.432 123.925 283.964 123.925 283.444C123.925 282.908 124.057 282.424 124.321 281.992C124.585 281.552 124.937 281.204 125.377 280.948C125.817 280.684 126.305 280.552 126.841 280.552C127.385 280.552 127.877 280.68 128.317 280.936C128.757 281.192 129.105 281.536 129.361 281.968C129.617 282.392 129.745 282.872 129.745 283.408C129.745 284.144 129.489 284.876 128.977 285.604L126.529 289H125.221ZM126.841 285.268C127.177 285.268 127.477 285.188 127.741 285.028C128.013 284.86 128.225 284.64 128.377 284.368C128.537 284.088 128.617 283.78 128.617 283.444C128.617 283.092 128.537 282.78 128.377 282.508C128.225 282.228 128.013 282.008 127.741 281.848C127.477 281.688 127.177 281.608 126.841 281.608C126.505 281.608 126.201 281.688 125.929 281.848C125.665 282.008 125.453 282.228 125.293 282.508C125.133 282.78 125.053 283.092 125.053 283.444C125.053 283.788 125.133 284.096 125.293 284.368C125.453 284.64 125.669 284.86 125.941 285.028C126.213 285.188 126.513 285.268 126.841 285.268ZM134.907 289.12C134.427 289.12 134.003 289.028 133.635 288.844C133.275 288.652 132.979 288.396 132.747 288.076L133.539 287.344C133.691 287.568 133.879 287.74 134.103 287.86C134.335 287.98 134.591 288.04 134.871 288.04C135.151 288.04 135.399 287.98 135.615 287.86C135.831 287.74 135.999 287.564 136.119 287.332C136.247 287.092 136.311 286.8 136.311 286.456V280.672H137.439V286.396C137.439 286.948 137.327 287.428 137.103 287.836C136.887 288.244 136.587 288.56 136.203 288.784C135.827 289.008 135.395 289.12 134.907 289.12ZM141.412 289.12C140.948 289.12 140.528 289.016 140.152 288.808C139.784 288.592 139.496 288.296 139.288 287.92C139.08 287.544 138.976 287.108 138.976 286.612V283.3H140.056V286.564C140.056 286.876 140.108 287.148 140.212 287.38C140.324 287.604 140.484 287.776 140.692 287.896C140.9 288.016 141.144 288.076 141.424 288.076C141.848 288.076 142.18 287.944 142.42 287.68C142.66 287.408 142.78 287.036 142.78 286.564V283.3H143.86V286.612C143.86 287.108 143.756 287.544 143.548 287.92C143.34 288.296 143.052 288.592 142.684 288.808C142.324 289.016 141.9 289.12 141.412 289.12ZM145.308 289V280.432H146.388V289H145.308Z" fill="#3D4C5E"/>
<path d="M264.03 277.108V275.512H270.372V277.108H264.03ZM266.396 272.978H268.02V279.628H266.396V272.978ZM273.49 277.346V275.792H275.772C276.071 275.792 276.341 275.731 276.584 275.61C276.827 275.489 277.018 275.316 277.158 275.092C277.298 274.859 277.368 274.579 277.368 274.252C277.368 273.935 277.298 273.659 277.158 273.426C277.018 273.193 276.827 273.015 276.584 272.894C276.341 272.773 276.071 272.712 275.772 272.712H273.49V271.158H275.968C276.593 271.158 277.153 271.284 277.648 271.536C278.152 271.788 278.549 272.147 278.838 272.614C279.127 273.071 279.272 273.617 279.272 274.252C279.272 274.887 279.127 275.437 278.838 275.904C278.549 276.361 278.152 276.716 277.648 276.968C277.153 277.22 276.593 277.346 275.968 277.346H273.49ZM272.09 281V271.158H273.994V281H272.09ZM286.571 281L282.301 275.862L286.459 271.158H288.839L284.205 276.268V275.386L288.993 281H286.571ZM280.621 281V271.158H282.525V281H280.621ZM291.414 276.884V275.4H293.696C294.163 275.4 294.522 275.283 294.774 275.05C295.035 274.807 295.166 274.476 295.166 274.056C295.166 273.673 295.035 273.356 294.774 273.104C294.522 272.843 294.163 272.712 293.696 272.712H291.414V271.158H293.864C294.499 271.158 295.054 271.284 295.53 271.536C296.015 271.779 296.389 272.115 296.65 272.544C296.921 272.973 297.056 273.468 297.056 274.028C297.056 274.607 296.921 275.111 296.65 275.54C296.389 275.96 296.015 276.291 295.53 276.534C295.045 276.767 294.48 276.884 293.836 276.884H291.414ZM290.014 281V271.158H291.918V281H290.014ZM295.39 281L292.142 276.744L293.892 276.198L297.7 281H295.39ZM304.195 281.14C303.514 281.14 302.893 281.023 302.333 280.79C301.773 280.547 301.307 280.202 300.933 279.754L302.193 278.508C302.38 278.788 302.646 279.012 302.991 279.18C303.346 279.348 303.733 279.432 304.153 279.432C304.536 279.432 304.867 279.362 305.147 279.222C305.437 279.082 305.661 278.886 305.819 278.634C305.987 278.373 306.071 278.069 306.071 277.724C306.071 277.36 305.987 277.052 305.819 276.8C305.661 276.548 305.446 276.357 305.175 276.226C304.905 276.095 304.601 276.03 304.265 276.03C303.911 276.03 303.589 276.077 303.299 276.17C303.019 276.254 302.749 276.394 302.487 276.59L302.599 275.386C302.777 275.199 302.963 275.05 303.159 274.938C303.355 274.817 303.575 274.728 303.817 274.672C304.069 274.607 304.363 274.574 304.699 274.574C305.418 274.574 306.015 274.723 306.491 275.022C306.977 275.311 307.345 275.703 307.597 276.198C307.849 276.683 307.975 277.22 307.975 277.808C307.975 278.452 307.817 279.026 307.499 279.53C307.182 280.034 306.739 280.431 306.169 280.72C305.609 281 304.951 281.14 304.195 281.14ZM302.487 276.59L301.577 275.694L302.025 271.158H303.747L303.243 275.764L302.487 276.59ZM302.319 272.81L302.025 271.158H307.429V272.81H302.319ZM308.931 282.666L309.925 280.818L310.499 280.664C310.433 280.785 310.359 280.888 310.275 280.972C310.191 281.056 310.093 281.098 309.981 281.098C309.747 281.098 309.528 280.995 309.323 280.79C309.117 280.585 309.015 280.328 309.015 280.02C309.015 279.684 309.127 279.399 309.351 279.166C309.575 278.933 309.855 278.816 310.191 278.816C310.499 278.816 310.769 278.933 311.003 279.166C311.236 279.399 311.353 279.684 311.353 280.02C311.353 280.151 311.325 280.309 311.269 280.496C311.213 280.673 311.11 280.902 310.961 281.182L309.883 283.17L308.931 282.666ZM316.404 281.14C315.629 281.14 314.929 280.93 314.304 280.51C313.679 280.09 313.179 279.497 312.806 278.732C312.442 277.967 312.26 277.075 312.26 276.058C312.26 275.041 312.442 274.154 312.806 273.398C313.17 272.642 313.66 272.054 314.276 271.634C314.901 271.214 315.597 271.004 316.362 271.004C317.146 271.004 317.846 271.214 318.462 271.634C319.087 272.054 319.582 272.647 319.946 273.412C320.31 274.168 320.492 275.059 320.492 276.086C320.492 277.103 320.31 277.995 319.946 278.76C319.582 279.516 319.092 280.104 318.476 280.524C317.86 280.935 317.169 281.14 316.404 281.14ZM316.376 279.418C316.824 279.418 317.211 279.292 317.538 279.04C317.865 278.788 318.117 278.415 318.294 277.92C318.481 277.425 318.574 276.809 318.574 276.072C318.574 275.335 318.481 274.719 318.294 274.224C318.117 273.729 317.86 273.361 317.524 273.118C317.197 272.866 316.81 272.74 316.362 272.74C315.923 272.74 315.541 272.866 315.214 273.118C314.887 273.361 314.631 273.729 314.444 274.224C314.267 274.709 314.178 275.321 314.178 276.058C314.178 276.805 314.267 277.425 314.444 277.92C314.631 278.415 314.887 278.788 315.214 279.04C315.541 279.292 315.928 279.418 316.376 279.418ZM325.646 281.14C324.871 281.14 324.171 280.93 323.546 280.51C322.921 280.09 322.421 279.497 322.048 278.732C321.684 277.967 321.502 277.075 321.502 276.058C321.502 275.041 321.684 274.154 322.048 273.398C322.412 272.642 322.902 272.054 323.518 271.634C324.143 271.214 324.839 271.004 325.604 271.004C326.388 271.004 327.088 271.214 327.704 271.634C328.329 272.054 328.824 272.647 329.188 273.412C329.552 274.168 329.734 275.059 329.734 276.086C329.734 277.103 329.552 277.995 329.188 278.76C328.824 279.516 328.334 280.104 327.718 280.524C327.102 280.935 326.411 281.14 325.646 281.14ZM325.618 279.418C326.066 279.418 326.453 279.292 326.78 279.04C327.107 278.788 327.359 278.415 327.536 277.92C327.723 277.425 327.816 276.809 327.816 276.072C327.816 275.335 327.723 274.719 327.536 274.224C327.359 273.729 327.102 273.361 326.766 273.118C326.439 272.866 326.052 272.74 325.604 272.74C325.165 272.74 324.783 272.866 324.456 273.118C324.129 273.361 323.873 273.729 323.686 274.224C323.509 274.709 323.42 275.321 323.42 276.058C323.42 276.805 323.509 277.425 323.686 277.92C323.873 278.415 324.129 278.788 324.456 279.04C324.783 279.292 325.17 279.418 325.618 279.418ZM334.888 281.14C334.114 281.14 333.414 280.93 332.788 280.51C332.163 280.09 331.664 279.497 331.29 278.732C330.926 277.967 330.744 277.075 330.744 276.058C330.744 275.041 330.926 274.154 331.29 273.398C331.654 272.642 332.144 272.054 332.76 271.634C333.386 271.214 334.081 271.004 334.846 271.004C335.63 271.004 336.33 271.214 336.946 271.634C337.572 272.054 338.066 272.647 338.43 273.412C338.794 274.168 338.976 275.059 338.976 276.086C338.976 277.103 338.794 277.995 338.43 278.76C338.066 279.516 337.576 280.104 336.96 280.524C336.344 280.935 335.654 281.14 334.888 281.14ZM334.86 279.418C335.308 279.418 335.696 279.292 336.022 279.04C336.349 278.788 336.601 278.415 336.778 277.92C336.965 277.425 337.058 276.809 337.058 276.072C337.058 275.335 336.965 274.719 336.778 274.224C336.601 273.729 336.344 273.361 336.008 273.118C335.682 272.866 335.294 272.74 334.846 272.74C334.408 272.74 334.025 272.866 333.698 273.118C333.372 273.361 333.115 273.729 332.928 274.224C332.751 274.709 332.662 275.321 332.662 276.058C332.662 276.805 332.751 277.425 332.928 277.92C333.115 278.415 333.372 278.788 333.698 279.04C334.025 279.292 334.412 279.418 334.86 279.418Z" fill="#00C896"/>
<defs>
<linearGradient id="paint0_linear_556_66046" x1="0.316406" y1="36" x2="356.316" y2="36" gradientUnits="userSpaceOnUse">
<stop stop-color="#00624A" stop-opacity="0.1"/>
<stop offset="1" stop-color="#00624A" stop-opacity="0.1"/>
</linearGradient>
<linearGradient id="paint1_linear_556_66046" x1="0.316406" y1="116" x2="356.316" y2="116" gradientUnits="userSpaceOnUse">
<stop stop-color="#00624A" stop-opacity="0.1"/>
<stop offset="1" stop-color="#00624A" stop-opacity="0.1"/>
</linearGradient>
<linearGradient id="paint2_linear_556_66046" x1="0.316406" y1="196" x2="356.316" y2="196" gradientUnits="userSpaceOnUse">
<stop stop-color="#00624A" stop-opacity="0.1"/>
<stop offset="1" stop-color="#00624A" stop-opacity="0.1"/>
</linearGradient>
<linearGradient id="paint3_linear_556_66046" x1="0.316406" y1="276" x2="356.316" y2="276" gradientUnits="userSpaceOnUse">
<stop stop-color="#00624A" stop-opacity="0.1"/>
<stop offset="1" stop-color="#00624A" stop-opacity="0.1"/>
</linearGradient>
<clipPath id="clip0_556_66046">
<rect width="17" height="17" fill="white" transform="translate(25.8164 27.5)"/>
</clipPath>
<clipPath id="clip1_556_66046">
<rect width="19.8333" height="19.8333" fill="white" transform="translate(27.3984 106.083)"/>
</clipPath>
<clipPath id="clip2_556_66046">
<rect width="17" height="17" fill="white" transform="translate(25.8164 187.5)"/>
</clipPath>
<clipPath id="clip3_556_66046">
<rect width="18" height="18" fill="white" transform="translate(28.3164 267)"/>
</clipPath>
</defs>
</svg>
