<svg width="20" height="16" viewBox="0 0 20 16" fill="none" xmlns="http://www.w3.org/2000/svg">
<path d="M2.50781 1.90625L8.52002 6.44645L8.52202 6.44811C9.1896 6.93767 9.52359 7.18259 9.8894 7.27721C10.2127 7.36084 10.5526 7.36084 10.876 7.27721C11.2421 7.18251 11.5771 6.93687 12.2458 6.44645C12.2458 6.44645 16.1021 3.4871 18.2578 1.90625M1.52344 11.5533V4.07207C1.52344 2.96946 1.52344 2.41775 1.73802 1.99661C1.92677 1.62617 2.22773 1.32521 2.59818 1.13646C3.01931 0.921875 3.57103 0.921875 4.67363 0.921875H16.0924C17.195 0.921875 17.7455 0.921875 18.1667 1.13646C18.5371 1.32521 18.8391 1.62617 19.0278 1.99661C19.2422 2.41734 19.2422 2.96838 19.2422 4.06883V11.5566C19.2422 12.6571 19.2422 13.2073 19.0278 13.6281C18.8391 13.9985 18.5371 14.3 18.1667 14.4888C17.7459 14.7031 17.1957 14.7031 16.0952 14.7031H4.6704C3.56995 14.7031 3.0189 14.7031 2.59818 14.4888C2.22773 14.3 1.92677 13.9985 1.73802 13.6281C1.52344 13.2069 1.52344 12.6559 1.52344 11.5533Z" stroke="#077EB2" stroke-width="1.5" stroke-linecap="round" stroke-linejoin="round"/>
</svg>
