<svg width="25" height="25" viewBox="0 0 25 25" fill="none" xmlns="http://www.w3.org/2000/svg">
<path d="M7.38281 18.6123V7.0123C7.38281 5.8922 7.38281 5.33293 7.6008 4.9051C7.79255 4.52878 8.09829 4.22202 8.47461 4.03027C8.90201 3.8125 9.46181 3.8125 10.5797 3.8125H14.1859C15.3038 3.8125 15.8628 3.8125 16.2902 4.03027C16.6665 4.22202 16.9733 4.52878 17.165 4.9051C17.3828 5.33251 17.3828 5.8915 17.3828 7.00941V18.6156C17.3828 19.7335 17.3828 20.2933 17.165 20.7207C16.9733 21.097 16.6665 21.4028 16.2902 21.5945C15.8624 21.8125 15.3031 21.8125 14.183 21.8125H10.583C9.4629 21.8125 8.90243 21.8125 8.47461 21.5945C8.09829 21.4028 7.79255 21.097 7.6008 20.7207C7.38281 20.2929 7.38281 19.7324 7.38281 18.6123Z" stroke="#AF52DE" stroke-width="1.5" stroke-linecap="round" stroke-linejoin="round"/>
</svg>
