<svg width="21" height="21" viewBox="0 0 21 21" fill="none" xmlns="http://www.w3.org/2000/svg">
<path d="M17.3906 3.71255C16.4742 2.78933 15.3834 2.05752 14.1818 1.55966C12.9801 1.0618 11.6913 0.807852 10.3906 0.812564C8.65172 0.814264 6.9437 1.27281 5.43774 2.14228C3.93179 3.01176 2.68072 4.26164 1.8098 5.76675C0.938873 7.27186 0.4787 8.97942 0.475325 10.7183C0.471962 12.4573 0.925535 14.1665 1.79062 15.675L0.390625 20.8125L5.64061 19.4375C7.09029 20.244 8.71922 20.6739 10.3781 20.6875C13.0152 20.6876 15.5456 19.646 17.4183 17.7895C19.2912 15.9331 20.3549 13.412 20.378 10.775C20.3693 9.45917 20.1008 8.15797 19.5882 6.94605C19.0756 5.73412 18.3287 4.6353 17.3906 3.71255ZM10.3906 18.975C8.91272 18.976 7.46186 18.5788 6.1906 17.825L5.8906 17.6375L2.77812 18.4625L3.60311 15.425L3.40311 15.1125C2.33968 13.3959 1.94279 11.3488 2.28764 9.35904C2.63249 7.36936 3.69513 5.57525 5.27423 4.31659C6.85335 3.05792 8.83922 2.42213 10.8557 2.52967C12.8722 2.6372 14.7793 3.48058 16.2156 4.90005C17.7856 6.43528 18.6843 8.52942 18.7156 10.725C18.6958 12.9199 17.8099 15.0181 16.2508 16.5633C14.6918 18.1083 12.5856 18.9751 10.3906 18.975ZM14.9031 12.8C14.6531 12.675 13.4406 12.075 13.2156 12C12.9906 11.925 12.8156 11.875 12.6531 12.125C12.4086 12.4602 12.1456 12.7814 11.8656 13.0875C11.7281 13.2625 11.5781 13.275 11.3281 13.0875C9.90271 12.5243 8.71522 11.4868 7.9656 10.15C7.7031 9.71254 8.2156 9.73754 8.69059 8.80005C8.72572 8.73242 8.74397 8.65742 8.74397 8.5813C8.74397 8.50517 8.72572 8.43017 8.69059 8.36255C8.69059 8.23754 8.1281 7.01254 7.9281 6.52504C7.7281 6.03754 7.5281 6.11254 7.3656 6.10004H6.8781C6.75179 6.10198 6.62735 6.13087 6.5131 6.18476C6.39885 6.23864 6.29743 6.31631 6.2156 6.41254C5.93513 6.68527 5.71637 7.01494 5.57406 7.37934C5.43174 7.74374 5.36919 8.13441 5.39061 8.52505C5.46898 9.46017 5.82114 10.3514 6.4031 11.0875C7.46835 12.6823 8.92822 13.9742 10.6406 14.8375C11.5387 15.3618 12.5825 15.581 13.6156 15.4625C13.9596 15.3943 14.2854 15.2544 14.5718 15.0519C14.8583 14.8495 15.0989 14.589 15.2781 14.2875C15.4441 13.9195 15.4963 13.5104 15.4281 13.1125C15.3156 12.9875 15.1531 12.925 14.9031 12.8Z" fill="#00B689"/>
</svg>
