<svg width="25" height="21" viewBox="0 0 25 21" fill="none" xmlns="http://www.w3.org/2000/svg">
<path d="M23.1777 19.4677C23.1777 17.3853 21.1815 15.6138 18.3952 14.9573M16.0039 19.4678C16.0039 16.8264 12.7921 14.6852 8.83008 14.6852C4.86808 14.6852 1.65625 16.8264 1.65625 19.4678M16.0039 11.0983C18.6452 11.0983 20.7865 8.95709 20.7865 6.31576C20.7865 3.67442 18.6452 1.5332 16.0039 1.5332M8.83008 11.0983C6.18875 11.0983 4.04753 8.95709 4.04753 6.31576C4.04753 3.67442 6.18875 1.5332 8.83008 1.5332C11.4714 1.5332 13.6126 3.67442 13.6126 6.31576C13.6126 8.95709 11.4714 11.0983 8.83008 11.0983Z" stroke="#909DAD" stroke-width="2" stroke-linecap="round" stroke-linejoin="round"/>
</svg>
