<svg width="21" height="17" viewBox="0 0 21 17" fill="none" xmlns="http://www.w3.org/2000/svg">
<path d="M1.91797 11.0002V12.8C1.91797 13.9201 1.91797 14.4798 2.13596 14.9076C2.3277 15.2839 2.63344 15.5905 3.00977 15.7822C3.43717 16 3.99696 16 5.11488 16H19.9182M1.91797 11.0002V1M1.91797 11.0002L5.77136 7.78906L5.77455 7.78651C6.47163 7.20561 6.82085 6.91459 7.19951 6.79639C7.64684 6.65675 8.12868 6.67884 8.56152 6.8584C8.92847 7.01062 9.25022 7.33238 9.89373 7.97589L9.90018 7.98234C10.5537 8.63584 10.8813 8.96346 11.2541 9.11535C11.6953 9.29508 12.1865 9.31056 12.6387 9.16057C13.022 9.0334 13.3722 8.72755 14.0723 8.11496L19.9179 3" stroke="#909DAD" stroke-width="2" stroke-linecap="round" stroke-linejoin="round"/>
</svg>
