<svg width="23" height="19" viewBox="0 0 23 19" fill="none" xmlns="http://www.w3.org/2000/svg">
<path d="M1.91797 18.0001H3.91797M3.91797 18.0001H9.91797M3.91797 18.0001V9.45222C3.91797 8.91788 3.91797 8.65057 3.98294 8.40193C4.04052 8.18159 4.13576 7.97307 4.26367 7.78464C4.40801 7.57201 4.60861 7.39569 5.01074 7.04383L9.81233 2.84244C10.5578 2.19014 10.9306 1.86397 11.3504 1.73982C11.7206 1.63035 12.1152 1.63035 12.4854 1.73982C12.9055 1.86406 13.2788 2.19054 14.0254 2.84383L18.8254 7.04383C19.2275 7.39568 19.4282 7.57202 19.5725 7.78464C19.7004 7.97307 19.795 8.18159 19.8525 8.40193C19.9175 8.65057 19.918 8.91788 19.918 9.45222V18.0001M9.91797 18.0001H13.918M9.91797 18.0001V14.0001C9.91797 12.8955 10.8134 12.0001 11.918 12.0001C13.0225 12.0001 13.918 12.8955 13.918 14.0001V18.0001M13.918 18.0001H19.918M19.918 18.0001H21.918" stroke="white" stroke-width="2" stroke-linecap="round" stroke-linejoin="round"/>
</svg>
