<svg width="20" height="22" viewBox="0 0 20 22" fill="none" xmlns="http://www.w3.org/2000/svg">
<path d="M11.5186 20.0761L16.9788 16.9236C17.5617 16.5871 17.8526 16.4188 18.0645 16.1834C18.2521 15.9751 18.3939 15.7297 18.4805 15.4632C18.5781 15.1626 18.5781 14.8267 18.5781 14.1568V7.84268C18.5781 7.17277 18.5781 6.83694 18.4805 6.53638C18.3939 6.26982 18.2521 6.02428 18.0645 5.816C17.8535 5.58161 17.5632 5.41405 16.9854 5.08043L11.5176 1.92359C10.9347 1.58706 10.6438 1.41913 10.334 1.35328C10.0598 1.295 9.7764 1.295 9.50224 1.35328C9.1924 1.41914 8.90056 1.58706 8.31768 1.92359L2.8564 5.07666C2.2742 5.41279 1.98332 5.58073 1.77148 5.816C1.58394 6.02428 1.44231 6.26982 1.3557 6.53638C1.25781 6.83765 1.25781 7.17436 1.25781 7.84742V14.1524C1.25781 14.8254 1.25781 15.1619 1.3557 15.4632C1.44231 15.7297 1.58394 15.9751 1.77148 16.1834C1.98344 16.4188 2.27454 16.5871 2.85742 16.9236L8.31768 20.0761C8.90055 20.4126 9.1924 20.5806 9.50224 20.6465C9.7764 20.7047 10.0598 20.7047 10.334 20.6465C10.6438 20.5806 10.9357 20.4126 11.5186 20.0761Z" stroke="#909DAD" stroke-width="2" stroke-linecap="round" stroke-linejoin="round"/>
<path d="M6.91797 10.9998C6.91797 12.6566 8.26111 13.9998 9.91797 13.9998C11.5748 13.9998 12.918 12.6566 12.918 10.9998C12.918 9.34291 11.5748 7.99976 9.91797 7.99976C8.26111 7.99976 6.91797 9.34291 6.91797 10.9998Z" stroke="#909DAD" stroke-width="2" stroke-linecap="round" stroke-linejoin="round"/>
</svg>
