<svg width="21" height="21" viewBox="0 0 21 21" fill="none" xmlns="http://www.w3.org/2000/svg">
<path d="M0.882813 19.1456H20.8828V20.8123H0.882813V19.1456ZM20.8828 7.40315V9.14565H18.3828V15.8123H20.0495V17.479H1.71615V15.8123H3.38281V9.14565H0.882813V7.40315C0.882729 6.95401 1.00364 6.51315 1.23284 6.1269C1.46204 5.74065 1.79106 5.42328 2.18531 5.20815L9.68531 1.11731C10.0525 0.916362 10.4643 0.811035 10.8828 0.811035C11.3014 0.811035 11.7132 0.916362 12.0803 1.11731L19.5803 5.20815C19.9746 5.42328 20.3036 5.74065 20.5328 6.1269C20.762 6.51315 20.8829 6.95401 20.8828 7.40315ZM5.04948 15.8123H7.54948V9.14565H5.04948V15.8123ZM9.21615 9.14565V15.8123H12.5495V9.14565H9.21615ZM16.7161 9.14565H14.2161V15.8123H16.7161V9.14565ZM19.2161 7.40315C19.2162 7.25343 19.1759 7.10648 19.0995 6.97773C19.0231 6.84898 18.9134 6.74319 18.782 6.67148L11.282 2.58065C11.1595 2.51383 11.0223 2.47882 10.8828 2.47882C10.7433 2.47882 10.6061 2.51383 10.4836 2.58065L2.98365 6.67148C2.85223 6.74319 2.74255 6.84898 2.66615 6.97773C2.58976 7.10648 2.54945 7.25343 2.54948 7.40315V7.47898H19.2161V7.40315Z" fill="#00C896"/>
</svg>
