<svg width="21" height="19" viewBox="0 0 21 19" fill="none" xmlns="http://www.w3.org/2000/svg">
<path d="M10.8848 6.81256V10.8126M3.26367 13.0124C2.35424 14.5875 1.89965 15.3754 1.96758 16.0217C2.02683 16.5854 2.32269 17.0976 2.78125 17.4307C3.3068 17.8126 4.21567 17.8126 6.0333 17.8126H15.7362C17.5539 17.8126 18.4626 17.8126 18.9881 17.4307C19.4467 17.0976 19.7427 16.5854 19.802 16.0217C19.8699 15.3754 19.4154 14.5875 18.506 13.0124L13.6562 4.61236C12.7468 3.03718 12.2919 2.24972 11.6982 1.98541C11.1804 1.75486 10.5888 1.75486 10.071 1.98541C9.47755 2.24961 9.02291 3.03708 8.11423 4.61095L3.26367 13.0124ZM10.9355 13.8126V13.9126L10.835 13.9128V13.8126H10.9355Z" stroke="#00C896" stroke-width="2" stroke-linecap="round" stroke-linejoin="round"/>
</svg>
