<svg width="25" height="25" viewBox="0 0 25 25" fill="none" xmlns="http://www.w3.org/2000/svg">
<path d="M3.65281 10.8125C3.22281 10.8125 2.88281 10.4725 2.88281 10.0425V7.7325C2.88281 5.0225 5.09281 2.8125 7.80281 2.8125H10.1128C10.5428 2.8125 10.8828 3.1525 10.8828 3.5825C10.8828 4.0125 10.5428 4.3525 10.1128 4.3525H7.80281C5.93281 4.3525 4.42281 5.8725 4.42281 7.7325V10.0425C4.42281 10.4725 4.07281 10.8125 3.65281 10.8125Z" fill="#00C896"/>
<path d="M22.1128 10.8125C21.6928 10.8125 21.3428 10.4725 21.3428 10.0425V7.7325C21.3428 5.8625 19.8228 4.3525 17.9628 4.3525H15.6528C15.2228 4.3525 14.8828 4.0025 14.8828 3.5825C14.8828 3.1625 15.2228 2.8125 15.6528 2.8125H17.9628C20.6728 2.8125 22.8828 5.0225 22.8828 7.7325V10.0425C22.8828 10.4725 22.5428 10.8125 22.1128 10.8125Z" fill="#00C896"/>
<path d="M17.9608 22.8122H16.5708C16.1508 22.8122 15.8008 22.4722 15.8008 22.0422C15.8008 21.6222 16.1408 21.2722 16.5708 21.2722H17.9608C19.8308 21.2722 21.3408 19.7522 21.3408 17.8922V16.5122C21.3408 16.0922 21.6808 15.7422 22.1108 15.7422C22.5308 15.7422 22.8808 16.0822 22.8808 16.5122V17.8922C22.8808 20.6022 20.6708 22.8122 17.9608 22.8122Z" fill="#00C896"/>
<path d="M10.1128 22.8125H7.80281C5.09281 22.8125 2.88281 20.6025 2.88281 17.8925V15.5825C2.88281 15.1525 3.22281 14.8125 3.65281 14.8125C4.08281 14.8125 4.42281 15.1525 4.42281 15.5825V17.8925C4.42281 19.7625 5.94281 21.2725 7.80281 21.2725H10.1128C10.5328 21.2725 10.8828 21.6125 10.8828 22.0425C10.8828 22.4725 10.5428 22.8125 10.1128 22.8125Z" fill="#00C896"/>
<path d="M19.3423 12.0425H17.9823H7.78234H6.42234C5.99234 12.0425 5.65234 12.3925 5.65234 12.8125C5.65234 13.2325 5.99234 13.5825 6.42234 13.5825H7.78234H17.9823H19.3423C19.7723 13.5825 20.1123 13.2325 20.1123 12.8125C20.1123 12.3925 19.7723 12.0425 19.3423 12.0425Z" fill="#00C896"/>
<path d="M7.78125 14.7525V15.0825C7.78125 16.7425 9.12125 18.0825 10.7812 18.0825H14.9813C16.6413 18.0825 17.9813 16.7425 17.9813 15.0825V14.7525C17.9813 14.6325 17.8913 14.5425 17.7713 14.5425H7.99125C7.87125 14.5425 7.78125 14.6325 7.78125 14.7525Z" fill="#00C896"/>
<path d="M7.78125 10.8725V10.5425C7.78125 8.88248 9.12125 7.54248 10.7812 7.54248H14.9813C16.6413 7.54248 17.9813 8.88248 17.9813 10.5425V10.8725C17.9813 10.9925 17.8913 11.0825 17.7713 11.0825H7.99125C7.87125 11.0825 7.78125 10.9925 7.78125 10.8725Z" fill="#00C896"/>
</svg>
